<svg width="720" height="720" viewBox="0 0 720 720" fill="none" xmlns="http://www.w3.org/2000/svg">
<mask id="path-1-inside-1_3_828" fill="white">
<path d="M540 671.769C608.631 632.145 662.27 570.982 692.597 497.766C722.924 424.55 728.244 343.373 707.733 266.825C687.222 190.277 642.026 122.636 579.154 74.3928C516.282 26.1495 439.248 5.98308e-06 360 0L360 180C399.624 180 438.141 193.075 469.577 217.196C501.013 241.318 523.611 275.139 533.867 313.413C544.122 351.687 541.462 392.275 526.298 428.883C511.135 465.491 484.316 496.073 450 515.885L540 671.769Z"/>
</mask>
<path d="M540 671.769C608.631 632.145 662.27 570.982 692.597 497.766C722.924 424.55 728.244 343.373 707.733 266.825C687.222 190.277 642.026 122.636 579.154 74.3928C516.282 26.1495 439.248 5.98308e-06 360 0L360 180C399.624 180 438.141 193.075 469.577 217.196C501.013 241.318 523.611 275.139 533.867 313.413C544.122 351.687 541.462 392.275 526.298 428.883C511.135 465.491 484.316 496.073 450 515.885L540 671.769Z" stroke="#D32986" stroke-width="400" mask="url(#path-1-inside-1_3_828)"/>
<mask id="path-2-inside-2_3_828" fill="white">
<path d="M105.442 614.558C161.479 670.595 234.44 706.576 313.011 716.92C391.581 727.264 471.369 711.393 540 671.769L450 515.885C415.684 535.697 375.79 543.632 336.505 538.46C297.22 533.288 260.739 515.298 232.721 487.279L105.442 614.558Z"/>
</mask>
<path d="M105.442 614.558C161.479 670.595 234.44 706.576 313.011 716.92C391.581 727.264 471.369 711.393 540 671.769L450 515.885C415.684 535.697 375.79 543.632 336.505 538.46C297.22 533.288 260.739 515.298 232.721 487.279L105.442 614.558Z" stroke="#38668F" stroke-width="400" mask="url(#path-2-inside-2_3_828)"/>
<mask id="path-3-inside-3_3_828" fill="white">
<path d="M48.2309 180C8.60669 248.631 -7.26413 328.419 3.07985 406.989C13.4238 485.56 49.4045 558.521 105.442 614.558L232.721 487.279C204.702 459.261 186.712 422.78 181.54 383.495C176.368 344.21 184.303 304.316 204.115 270L48.2309 180Z"/>
</mask>
<path d="M48.2309 180C8.60669 248.631 -7.26413 328.419 3.07985 406.989C13.4238 485.56 49.4045 558.521 105.442 614.558L232.721 487.279C204.702 459.261 186.712 422.78 181.54 383.495C176.368 344.21 184.303 304.316 204.115 270L48.2309 180Z" stroke="#F9B815" stroke-width="400" mask="url(#path-3-inside-3_3_828)"/>
<mask id="path-4-inside-4_3_828" fill="white">
<path d="M180 48.2308C125.273 79.8274 79.8275 125.273 48.2309 180L204.115 270C219.914 242.637 242.637 219.914 270 204.115L180 48.2308Z"/>
</mask>
<path d="M180 48.2308C125.273 79.8274 79.8275 125.273 48.2309 180L204.115 270C219.914 242.637 242.637 219.914 270 204.115L180 48.2308Z" stroke="#111115" stroke-width="400" mask="url(#path-4-inside-4_3_828)"/>
<mask id="path-5-inside-5_3_828" fill="white">
<path d="M360 0C296.807 -7.53571e-07 234.727 16.6342 180 48.2308L270 204.115C297.363 188.317 328.403 180 360 180V0Z"/>
</mask>
<path d="M360 0C296.807 -7.53571e-07 234.727 16.6342 180 48.2308L270 204.115C297.363 188.317 328.403 180 360 180V0Z" stroke="#D32986" stroke-opacity="0.5" stroke-width="400" mask="url(#path-5-inside-5_3_828)"/>
</svg>
