<svg width="558" height="540" viewBox="0 0 558 540" fill="none" xmlns="http://www.w3.org/2000/svg">
<path d="M542.252 386.101L542.054 356.049L505.722 348.671L314.784 237.875C286.29 221.337 236.457 223.317 203.486 242.302L27.3076 343.686C25.8694 344.514 24.5032 345.36 23.1728 346.242L0 353.314V380.63C0.233706 390.87 6.52579 400.641 19.1998 407.983L227.648 528.784C256.142 545.322 305.975 543.342 338.946 524.358L515.124 422.973C533.443 412.428 542.701 398.841 542.414 386.029L542.252 386.101Z" fill="url(#paint0_linear_3_592)"/>
<path d="M227.648 501.558L19.2537 380.684C-9.25841 364.147 -5.62698 335.355 27.3435 316.37L203.522 214.985C236.492 196.018 286.326 194.021 314.82 210.558L523.124 331.432C551.636 347.969 548.004 376.761 515.034 395.746L338.856 497.131C305.885 516.188 256.052 518.077 227.648 501.558Z" fill="url(#paint1_linear_3_592)"/>
<path d="M217.149 177.879L192.358 163.483C191.692 163.017 190.917 162.729 190.109 162.647C189.3 162.565 188.484 162.692 187.738 163.015L87.1543 221.067L121.455 351.748L221.463 294.074C223.153 293.264 224.25 291.14 224.25 288.045L224.43 191.879C224.43 186.445 221.176 180.182 217.149 177.879Z" fill="url(#paint2_linear_3_592)"/>
<path d="M116.781 351.244L91.9721 336.848C87.9451 334.509 84.7811 328.247 84.7811 322.884L84.9429 226.718C84.9429 221.32 88.2328 218.872 92.2597 221.212L117.051 235.608C121.077 237.947 124.331 244.191 124.331 249.572L124.152 345.72C124.08 351.1 120.808 353.566 116.781 351.244Z" fill="#AB95F9"/>
<path d="M111.801 339.835L95.927 330.621C94.4997 329.593 93.3344 328.242 92.5255 326.679C91.7165 325.116 91.2867 323.384 91.2709 321.624V235.715C91.2709 232.26 93.3742 230.694 95.945 232.116L111.819 241.33C113.25 242.355 114.417 243.705 115.226 245.269C116.036 246.833 116.464 248.566 116.475 250.327V336.254C116.475 339.835 114.39 341.365 111.801 339.835Z" fill="#D32986"/>
<path d="M103.604 326.627C102.179 325.596 101.016 324.244 100.208 322.682C99.3992 321.119 98.9675 319.389 98.9474 317.629V234.006L95.9092 232.207C93.3205 230.713 91.2351 232.207 91.2351 235.806V321.714C91.2446 323.474 91.6698 325.206 92.4759 326.77C93.2819 328.334 94.4461 329.685 95.8733 330.712L111.747 339.925C114.336 341.419 116.421 339.835 116.421 336.326V334.023L103.604 326.627Z" fill="url(#paint3_linear_3_592)"/>
<g opacity="0.25">
<path d="M96.8979 352.432C95.9897 352.409 95.1033 352.149 94.3272 351.676L78.4352 342.481C76.7913 341.335 75.4444 339.813 74.5063 338.042C73.5683 336.27 73.0663 334.3 73.042 332.295V246.386C72.9575 245.416 73.1308 244.441 73.5444 243.559C73.958 242.677 74.5971 241.921 75.397 241.366C76.0957 240.997 76.8815 240.826 77.6701 240.87C78.4587 240.915 79.2204 241.173 79.8734 241.618L95.7474 250.831C97.3913 251.977 98.7382 253.499 99.6762 255.27C100.614 257.042 101.116 259.012 101.141 261.017V346.925C101.227 347.894 101.056 348.868 100.646 349.75C100.236 350.632 99.6001 351.389 98.8036 351.946C98.2221 352.273 97.5648 352.44 96.8979 352.432ZM77.3925 243.705C77.2222 243.702 77.0544 243.746 76.9071 243.831C76.4756 244.083 76.0082 244.875 76.0082 246.368V332.277C76.0324 333.777 76.3999 335.251 77.0825 336.586C77.765 337.922 78.7444 339.082 79.9453 339.979L95.8193 349.193C96.1968 349.409 96.9159 349.751 97.4373 349.445C97.9586 349.139 98.3361 348.401 98.3361 346.907V260.981C98.316 259.483 97.9501 258.01 97.2672 256.677C96.5842 255.344 95.6026 254.187 94.3991 253.297L78.5251 244.083C78.1832 243.871 77.794 243.747 77.3925 243.723V243.705Z" fill="#E01E8F"/>
</g>
<g opacity="0.25">
<path d="M62.0397 372.406C61.1254 372.387 60.2324 372.126 59.451 371.651L43.5769 362.437C41.9331 361.291 40.5861 359.77 39.6481 357.998C38.71 356.227 38.208 354.257 38.1837 352.252V266.325C38.1164 265.341 38.3125 264.357 38.7518 263.475C39.1911 262.592 39.8576 261.843 40.6826 261.304C41.3813 260.936 42.1671 260.764 42.9557 260.809C43.7443 260.853 44.5059 261.111 45.1589 261.556L61.033 270.77C62.6768 271.915 64.0238 273.437 64.9618 275.209C65.8998 276.98 66.4019 278.95 66.4262 280.955V366.882C66.5126 367.851 66.342 368.825 65.9316 369.706C65.5213 370.588 64.8857 371.346 64.0891 371.902C63.4677 372.262 62.7568 372.437 62.0397 372.406ZM42.4803 263.68C42.3103 263.678 42.1429 263.722 41.9949 263.806C41.5635 264.058 41.096 264.849 41.096 266.343V352.252C41.1202 353.751 41.4877 355.226 42.1703 356.561C42.8528 357.896 43.8322 359.057 45.0331 359.954L60.9071 369.167C61.1376 369.334 61.4045 369.444 61.6858 369.488C61.9671 369.532 62.2547 369.508 62.5251 369.419C62.9565 369.167 63.424 368.357 63.424 366.882V280.955C63.4038 279.455 63.0381 277.979 62.3552 276.643C61.6724 275.307 60.6908 274.147 59.4869 273.253L43.6129 264.058C43.274 263.836 42.884 263.706 42.4803 263.68Z" fill="#E01E8F"/>
</g>
<path style="mix-blend-mode:overlay" opacity="0.6" d="M111.783 340.033L95.9092 330.838C94.4839 329.807 93.3202 328.456 92.5115 326.893C91.7028 325.331 91.2718 323.6 91.2531 321.84V235.913C91.2531 232.476 93.3564 230.893 95.9272 232.314L111.801 241.528C113.226 242.558 114.39 243.909 115.199 245.472C116.008 247.035 116.439 248.765 116.457 250.525V336.452C116.457 339.943 114.39 341.527 111.783 340.033Z" fill="url(#paint4_linear_3_592)"/>
<path d="M435.466 383.815V143.688L195.468 138.956V377.085C194.606 379.731 195.738 382.484 198.956 384.283L307.845 448.742C313.472 452.089 323.395 451.765 329.975 448.058L430.037 391.625C433.956 389.448 435.79 386.623 435.466 383.815Z" fill="url(#paint5_linear_3_592)"/>
<path d="M307.827 207.229L198.884 142.77C193.239 139.441 194.012 133.773 200.682 129.994L300.726 73.5072C307.324 69.8002 317.229 69.4942 322.874 72.8233L431.745 137.282C437.39 140.611 436.617 146.279 429.947 150.058L329.903 206.491C323.378 210.27 313.472 210.558 307.827 207.229Z" fill="url(#paint6_linear_3_592)"/>
<path d="M289.022 359.774C289.035 357.476 288.498 355.209 287.457 353.162C286.416 351.114 284.9 349.346 283.036 348.005L202.03 300.12C201.449 299.705 200.769 299.452 200.058 299.386C199.348 299.319 198.633 299.442 197.985 299.742C197.816 299.824 197.653 299.921 197.5 300.03L177.311 312.015L265.688 377.067L286.074 364.902C286.539 364.756 286.964 364.504 287.315 364.165C287.891 363.593 288.34 362.907 288.635 362.151C288.929 361.394 289.061 360.584 289.022 359.774Z" fill="#EAD6E2"/>
<path d="M262.075 376.509L181.051 328.624C179.19 327.281 177.678 325.512 176.64 323.465C175.601 321.418 175.067 319.151 175.082 316.856C175.172 312.375 178.013 310.377 181.41 312.393L262.434 360.296C264.295 361.635 265.81 363.4 266.851 365.445C267.892 367.489 268.431 369.752 268.421 372.047C268.313 376.527 265.401 378.525 262.075 376.509Z" fill="white"/>
<path d="M288.915 324.018C288.917 321.722 288.376 319.458 287.335 317.412C286.295 315.367 284.784 313.597 282.928 312.249L201.904 264.364C201.328 263.945 200.651 263.69 199.942 263.623C199.234 263.557 198.521 263.682 197.877 263.986C197.703 264.06 197.54 264.157 197.392 264.274L177.311 276.258L265.688 341.311L286.074 329.128C286.545 328.993 286.977 328.746 287.333 328.408C287.879 327.821 288.301 327.13 288.573 326.375C288.845 325.62 288.961 324.818 288.915 324.018Z" fill="url(#paint7_linear_3_592)"/>
<path d="M261.949 340.753L180.907 292.868C179.051 291.52 177.54 289.75 176.5 287.704C175.459 285.658 174.918 283.395 174.92 281.099C175.028 276.618 177.869 274.621 181.266 276.636L262.272 324.521C264.136 325.863 265.652 327.631 266.693 329.678C267.735 331.726 268.272 333.993 268.259 336.29C268.205 340.771 265.4 342.769 261.949 340.753Z" fill="url(#paint8_linear_3_592)"/>
<path d="M289.148 288.351C289.151 286.058 288.61 283.797 287.569 281.754C286.528 279.711 285.018 277.945 283.162 276.6L202.138 228.697C201.559 228.286 200.882 228.035 200.175 227.968C199.468 227.902 198.756 228.023 198.111 228.319C197.941 228.401 197.778 228.497 197.626 228.607L177.473 240.61L265.85 305.645L286.236 293.462C286.704 293.319 287.134 293.073 287.494 292.742C288.052 292.16 288.486 291.471 288.77 290.716C289.054 289.961 289.183 289.157 289.148 288.351Z" fill="url(#paint9_linear_3_592)"/>
<path d="M262.182 305.105L181.176 257.201C179.32 255.857 177.81 254.091 176.769 252.048C175.729 250.005 175.187 247.744 175.19 245.451C175.298 240.97 178.138 238.972 181.536 240.97L262.542 288.873C264.403 290.212 265.917 291.978 266.959 294.022C268 296.066 268.538 298.329 268.528 300.624C268.438 305.105 265.598 307.102 262.182 305.105Z" fill="url(#paint10_linear_3_592)"/>
<path d="M289.148 252.703C289.151 250.407 288.61 248.143 287.569 246.098C286.528 244.052 285.018 242.282 283.162 240.934L202.138 193.049C201.562 192.63 200.884 192.375 200.176 192.308C199.468 192.242 198.754 192.367 198.111 192.671C197.937 192.745 197.774 192.842 197.626 192.959L177.473 204.871L265.85 269.924L286.236 257.741C286.707 257.606 287.139 257.359 287.494 257.021C288.045 256.449 288.475 255.772 288.759 255.03C289.043 254.288 289.175 253.497 289.148 252.703Z" fill="url(#paint11_linear_3_592)"/>
<path d="M262.182 269.438L181.176 221.553C179.32 220.205 177.81 218.435 176.769 216.389C175.728 214.344 175.187 212.08 175.19 209.784C175.298 205.303 178.138 203.306 181.536 205.321L262.542 253.225C264.403 254.564 265.917 256.329 266.959 258.373C268 260.417 268.538 262.681 268.528 264.975C268.438 269.456 265.598 271.454 262.182 269.438Z" fill="url(#paint12_linear_3_592)"/>
<g style="mix-blend-mode:multiply">
<path d="M418.298 209.209L342.38 253.099V241.276L418.298 197.404V209.209ZM418.298 220.096L394.927 233.556V245.379L418.298 231.918V220.096ZM386.155 238.667L342.38 263.986V275.791L386.155 250.489V238.667ZM418.298 241.942L364.276 273.253V285.076L418.316 253.765L418.298 241.942ZM355.377 278.346L342.38 285.85V297.655L355.413 290.205L355.377 278.346ZM418.298 264.76L342.38 308.632V320.455L418.298 276.564V264.76ZM418.298 287.541L394.927 301.002V312.843L418.298 299.4V287.541ZM386.155 306.112L342.38 331.414V343.236L386.155 317.935V306.112ZM418.298 309.388L364.276 340.681V352.432L418.316 321.12L418.298 309.388ZM355.377 345.792L342.344 353.26V365.029L355.377 357.579V345.792Z" fill="#EAD6E2"/>
</g>
<path d="M418.298 353.421L342.38 397.294V374.872L418.298 331V353.421Z" fill="#75114D"/>
<path d="M418.298 353.421L400.069 341.545L418.298 331V353.421Z" fill="url(#paint13_linear_3_592)"/>
<path d="M393.884 96.307C382.882 77.3221 353.615 63.7178 319.152 63.7178C284.69 63.7178 255.441 77.3221 244.438 96.307H239.71V112.863C239.71 140.017 275.27 162.025 319.152 162.025C363.035 162.025 398.613 140.089 398.613 112.863V96.307H393.884Z" fill="#E06703"/>
<path style="mix-blend-mode:overlay" d="M253.463 112.862V140.503C271.548 156.357 295.656 162.097 322.964 162.097V145.487L253.463 112.862Z" fill="url(#paint14_linear_3_592)"/>
<path d="M319.153 145.452C363.027 145.452 398.595 123.449 398.595 96.3068C398.595 69.165 363.027 47.1621 319.153 47.1621C275.278 47.1621 239.711 69.165 239.711 96.3068C239.711 123.449 275.278 145.452 319.153 145.452Z" fill="#FFD81D"/>
<path style="mix-blend-mode:overlay" d="M266.101 132.891L380.707 65.2295C366.181 54.2165 344.105 47.2344 319.368 47.2344L239.711 96.2891C239.711 110.811 249.94 123.894 266.101 132.891Z" fill="url(#paint15_linear_3_592)"/>
<path style="mix-blend-mode:overlay" d="M319.152 145.488C320.375 145.488 321.561 145.488 322.748 145.38L398.253 100.896C399.222 94.8672 398.318 88.6863 395.664 83.1885L293.714 142.86C302.081 144.608 310.606 145.488 319.152 145.488Z" fill="url(#paint16_linear_3_592)"/>
<path d="M319.153 131.073C354.191 131.073 382.595 114.517 382.595 94.0933C382.595 73.6698 354.191 57.1133 319.153 57.1133C284.114 57.1133 255.71 73.6698 255.71 94.0933C255.71 114.517 284.114 131.073 319.153 131.073Z" fill="#F9B815"/>
<path style="mix-blend-mode:overlay" opacity="0.5" d="M307.125 130.516L381.372 86.7334C378.262 77.9518 369.777 70.3218 358.001 65.0133C349.187 63.0647 340.188 62.0812 331.161 62.0801L259.252 106.384C266.712 118.675 284.816 127.996 307.125 130.516Z" fill="url(#paint17_linear_3_592)"/>
<path d="M319.153 57.1133C284.115 57.1133 255.71 73.6688 255.71 94.0933C255.737 95.916 255.985 97.7288 256.447 99.4918C260.942 81.6227 287.261 67.8924 319.153 67.8924C351.044 67.8924 377.381 81.6227 381.858 99.4918C382.335 97.7313 382.589 95.9174 382.613 94.0933C382.613 73.6688 354.19 57.1133 319.153 57.1133Z" fill="#DD7105"/>
<path style="mix-blend-mode:overlay" d="M319.332 57.1133C313.113 57.1083 306.904 57.6502 300.78 58.7329V69.53C306.903 68.4346 313.111 67.8806 319.332 67.8744C339.862 67.8744 358.038 73.5969 369.669 82.4145V71.7074C357.984 62.8178 339.79 57.1133 319.332 57.1133Z" fill="url(#paint18_linear_3_592)"/>
<path d="M279.836 106.042V101.958L267.486 109.084L263.98 107.05V111.153L267.486 113.186L272.088 110.523L289.292 120.457L292.438 118.639V114.554L277.445 107.428L279.836 106.042Z" fill="#CE5800"/>
<path d="M304.447 101.813L302.128 98.556L291.216 94.4531L281.67 98.1781V102.659C281.626 102.933 281.626 103.212 281.67 103.487C281.931 104.415 282.412 105.267 283.072 105.97C283.704 106.647 284.409 107.25 285.175 107.77H285.265C286.041 108.332 286.845 108.854 287.674 109.335C290.669 111.135 294.017 112.265 297.49 112.646C300.36 113.016 303.273 112.468 305.813 111.081C306.497 110.778 307.1 110.319 307.575 109.741C308.049 109.163 308.382 108.482 308.546 107.752V103.361L307.143 104.314C306.353 103.371 305.447 102.531 304.447 101.813ZM296.717 107.59C296.321 107.59 287.404 103.703 286.667 103.397C286.598 102.889 286.7 102.372 286.958 101.929C287.215 101.486 287.612 101.141 288.087 100.949C289.583 100.163 291.293 99.8855 292.959 100.158C295.254 100.515 297.455 101.329 299.431 102.551C301.133 103.31 302.568 104.564 303.548 106.15C301.355 106.726 297.004 107.698 296.717 107.59Z" fill="#CE5800"/>
<path d="M318.721 99.3662L311.854 96.433L325.534 99.5102L329.597 97.1708V95.3713L331.215 96.307L343.026 89.4869V86.3018L345.723 87.8493L348.635 86.1038V82.0729C348.635 82.0729 342.99 81.0112 342.523 80.7412C342.415 80.7412 341.39 80.1294 339.898 79.3736L354.891 82.5048L358.038 80.7053V76.6384L353.795 76.4944L349.139 75.5767L347.341 74.5149L349.139 75.1088C349.055 74.5529 348.872 74.0165 348.599 73.5252C348.258 73.0933 334.379 66.3271 334.379 66.3271V70.448L340.294 73.8671L336.788 73.1833L332.995 74.209L337.31 76.1165L330.64 74.6769L324.959 71.7977V75.7026L316.546 78.3119L318.487 79.6256L314.64 81.839L310.451 80.1654V84.3043L324.725 92.4921L310.11 90.6926L310.811 93.3918L308.546 85.384L306.892 86.3557L306.802 85.1321L304.339 83.7284V87.9033L306.317 94.1476L304.339 93.2659L294.865 89.271V93.3019L315.575 105.269L318.703 103.469L318.721 99.3662ZM325.534 79.5716V76.1885L341.984 85.6899L330.352 89.8468L327.134 88.0473L333.031 84.6462V80.5433L326.865 82.1629L327.907 83.5665L323.593 86.1038L319.512 83.7644L318.847 83.4945L325.534 79.5716Z" fill="#CE5800"/>
<path d="M349.426 114.176V112.179L346.119 111.135V115.22C346.65 115.638 347.132 116.115 347.557 116.641L347.071 117.271L334.361 115.022L331.719 112.592C331.982 112.109 332.382 111.715 332.869 111.459C333.799 110.954 334.851 110.717 335.908 110.775C337.182 110.807 338.439 111.082 339.611 111.585L341.714 109.209V105.125C341.714 105.125 334.056 105.125 333.822 105.125C332.482 105.982 331.186 106.907 329.939 107.896L331.126 108.544C330.546 108.744 329.987 108.997 329.454 109.299C329.196 109.462 328.949 109.642 328.717 109.839L328.087 109.263L326.865 108.796V112.646V113.096C326.863 113.401 326.905 113.704 326.991 113.996C327.643 115.599 328.765 116.967 330.209 117.919L326.811 116.461C326.308 116.299 317.822 112.754 317.822 112.754V116.839L338.532 128.806L341.66 127.007V122.94C342.002 122.94 342.325 123.066 342.667 123.102C345.37 123.518 348.136 123.058 350.559 121.788C352.231 120.834 353.058 119.719 353.04 118.459V114.374L350.289 112.88L349.426 114.176Z" fill="#CE5800"/>
<path d="M369.669 104.567L367.871 105.61C367.133 104.84 366.313 104.152 365.426 103.559C364.186 101.759 361.453 98.0164 361.453 98.0164L350.972 96.001L345.004 99.2401L345.633 100.446C345.543 100.446 345.435 100.446 345.363 100.572C344.898 100.849 344.458 101.168 344.051 101.525L342.541 100.374V104.423C342.545 104.683 342.575 104.942 342.631 105.196C342.893 106.121 343.367 106.971 344.015 107.68C345.358 109.072 346.911 110.244 348.617 111.153C351.611 112.955 354.96 114.085 358.433 114.464C361.303 114.843 364.219 114.294 366.757 112.898C367.488 112.59 368.126 112.095 368.609 111.464C369.091 110.833 369.401 110.087 369.507 109.299L369.669 104.567ZM349.031 102.623C350.526 101.837 352.236 101.559 353.903 101.831C356.198 102.189 358.398 103.003 360.375 104.225C361.961 105.014 363.308 106.213 364.276 107.698C362.316 108.652 359.332 110.001 359.332 110.001L348.545 105.035L347.467 104.207C347.587 103.854 347.781 103.53 348.035 103.257C348.289 102.984 348.598 102.768 348.941 102.623H349.031Z" fill="#CE5800"/>
<path d="M289.292 116.372L272.088 106.42L267.486 109.084L263.98 107.068L276.33 99.8701L279.782 101.958L275.18 104.603L292.366 114.554L289.292 116.372Z" fill="#F9B815"/>
<path d="M287.8 105.412C286.099 104.503 284.552 103.331 283.216 101.939C282.563 101.231 282.083 100.381 281.813 99.4558C281.575 98.7147 281.627 97.911 281.957 97.2064C282.538 96.1745 283.415 95.3408 284.474 94.813C287.025 93.4371 289.942 92.8959 292.815 93.2654C296.34 93.6605 299.738 94.8146 302.775 96.6485C306.119 98.574 308.042 100.499 308.546 102.299C309.049 104.099 308.186 105.772 305.903 107.086C303.361 108.467 300.448 109.009 297.579 108.633C294.124 108.284 290.787 107.185 287.8 105.412ZM290.892 103.469C292.892 104.715 295.125 105.542 297.454 105.898C299.126 106.175 300.844 105.917 302.361 105.16C302.899 104.947 303.332 104.533 303.57 104.006C303.808 103.479 303.832 102.88 303.638 102.335C302.684 100.642 301.208 99.3035 299.431 98.52C297.459 97.2907 295.257 96.4764 292.959 96.1267C291.294 95.8491 289.585 96.1207 288.087 96.9004C286.793 97.6562 286.29 98.592 286.739 99.7437C287.189 100.895 288.519 102.083 290.892 103.469Z" fill="#F9B815"/>
<path d="M315.593 101.165L294.883 89.1987L298.011 87.3992L307.215 92.7977L304.357 83.8002L308.546 81.2988L310.757 89.3427L329.579 93.0856L325.516 95.425L311.53 92.2759L312.447 95.7489L318.703 99.348L315.593 101.165Z" fill="#F9B815"/>
<path d="M331.215 92.1498L310.505 80.165L322.029 73.5068L325.534 75.5223L317.157 80.363L321.741 83.0263L329.543 78.5095L333.031 80.5249L325.229 85.0417L330.874 88.2988L339.539 83.2782L343.026 85.2937L331.215 92.1498Z" fill="#F9B815"/>
<path d="M345.723 83.7646L325.013 71.7978L328.069 69.9983L348.258 74.3171L334.415 66.3093L337.328 64.6357L358.038 76.6025L354.892 78.402L335.116 74.2092L348.617 82.0191L345.723 83.7646Z" fill="#F9B815"/>
<path d="M338.64 124.721L317.93 112.755L321.058 110.955L341.768 122.922L338.64 124.721Z" fill="#F9B815"/>
<path d="M346.118 111.135L350.433 110.109C351.149 110.601 351.758 111.232 352.225 111.965C352.691 112.697 353.005 113.517 353.148 114.374C353.148 115.634 352.339 116.731 350.667 117.703C348.238 118.956 345.478 119.415 342.775 119.017C339.339 118.623 336.028 117.493 333.067 115.706C329.615 113.708 327.674 111.783 327.044 109.911C326.415 108.04 327.278 106.474 329.453 105.214C331.551 104.07 333.945 103.587 336.321 103.829C338.172 103.998 339.988 104.434 341.714 105.124L339.611 107.482C338.434 106.995 337.18 106.721 335.907 106.672C334.849 106.62 333.797 106.863 332.869 107.374C332.622 107.464 332.395 107.602 332.202 107.781C332.009 107.96 331.854 108.175 331.745 108.415C331.636 108.655 331.576 108.913 331.569 109.177C331.561 109.44 331.606 109.702 331.701 109.947C332.727 111.585 334.216 112.882 335.979 113.672C338.033 114.964 340.316 115.85 342.703 116.281C344.206 116.561 345.759 116.34 347.125 115.652C347.47 115.502 347.76 115.248 347.954 114.926C348.147 114.603 348.235 114.227 348.204 113.852C347.861 112.723 347.12 111.757 346.118 111.135Z" fill="#F9B815"/>
<path d="M348.653 107.086C346.951 106.171 345.398 105 344.051 103.613C343.41 102.9 342.937 102.051 342.667 101.13C342.429 100.389 342.48 99.5849 342.811 98.8803C343.394 97.8437 344.278 97.009 345.346 96.487C347.889 95.109 350.801 94.5676 353.669 94.9394C357.194 95.3344 360.592 96.4886 363.629 98.3225C366.972 100.248 368.896 102.155 369.435 104.045C369.975 105.934 369.076 107.518 366.793 108.832C364.25 110.213 361.337 110.755 358.469 110.379C354.995 110.016 351.644 108.891 348.653 107.086ZM351.692 105.125C353.691 106.365 355.925 107.18 358.253 107.518C359.926 107.795 361.644 107.537 363.161 106.78C363.698 106.567 364.132 106.153 364.37 105.626C364.608 105.099 364.632 104.5 364.438 103.955C363.484 102.262 362.008 100.923 360.231 100.14C358.258 98.9107 356.056 98.0964 353.759 97.7466C352.094 97.4691 350.384 97.7406 348.887 98.5204C347.593 99.2762 347.089 100.212 347.539 101.364C348.482 103.033 349.938 104.352 351.692 105.125Z" fill="#F9B815"/>
<g style="mix-blend-mode:overlay">
<g style="mix-blend-mode:overlay">
<path style="mix-blend-mode:overlay" d="M289.292 116.371L272.088 106.42L267.486 109.083L263.98 107.068L276.312 99.8696L279.908 101.903L275.306 104.566L292.366 114.554L289.292 116.371Z" fill="url(#paint19_linear_3_592)"/>
</g>
<g style="mix-blend-mode:overlay">
<path style="mix-blend-mode:overlay" d="M287.8 105.412C286.091 104.507 284.537 103.335 283.198 101.939C282.558 101.221 282.08 100.375 281.795 99.4558C281.567 98.7196 281.619 97.9251 281.939 97.2244C282.526 96.1867 283.409 95.3473 284.474 94.8131C287.017 93.4343 289.931 92.8987 292.798 93.2835C296.324 93.6605 299.724 94.8094 302.757 96.6486C306.101 98.58 308.03 100.464 308.546 102.299C309.067 104.099 308.204 105.772 305.921 107.086C303.371 108.463 300.455 109.01 297.58 108.651C294.124 108.292 290.788 107.187 287.8 105.412ZM290.892 103.469C292.886 104.715 295.112 105.541 297.436 105.898C299.108 106.187 300.829 105.928 302.344 105.16C302.884 104.951 303.32 104.537 303.559 104.009C303.797 103.48 303.819 102.879 303.62 102.335C302.671 100.645 301.202 99.3067 299.431 98.5201C297.452 97.2903 295.244 96.476 292.941 96.1267C291.275 95.8546 289.565 96.1326 288.069 96.9185C286.793 97.6563 286.272 98.61 286.721 99.7437C287.681 101.398 289.142 102.702 290.892 103.469Z" fill="url(#paint20_linear_3_592)"/>
</g>
<g style="mix-blend-mode:overlay">
<path style="mix-blend-mode:overlay" d="M315.575 101.183L294.865 89.2167L298.011 87.4172L307.197 92.8157L304.339 83.8182L308.546 81.2988L310.757 89.3427L329.561 93.0856L325.498 95.425L311.512 92.2759L312.447 95.7489L318.685 99.348L315.575 101.183Z" fill="url(#paint21_linear_3_592)"/>
</g>
<g style="mix-blend-mode:overlay">
<path style="mix-blend-mode:overlay" d="M331.197 92.1499L310.487 80.1831L322.011 73.5249L325.516 75.5403L317.139 80.381L321.723 83.0443L329.525 78.5275L333.013 80.561L325.211 85.0598L330.856 88.3169L339.539 83.2963L343.008 85.3117L331.197 92.1499Z" fill="url(#paint22_linear_3_592)"/>
</g>
<g style="mix-blend-mode:overlay">
<path style="mix-blend-mode:overlay" d="M345.705 83.764L324.995 71.7973L328.051 69.9977L348.24 74.3166L334.415 66.3087L337.328 64.6172L358.038 76.584L354.892 78.3835L335.116 74.2086L348.617 82.0005L345.705 83.764Z" fill="url(#paint23_linear_3_592)"/>
</g>
<g style="mix-blend-mode:overlay">
<path style="mix-blend-mode:overlay" d="M338.622 124.721L317.912 112.754L321.058 110.955L341.768 122.921L338.622 124.721Z" fill="url(#paint24_linear_3_592)"/>
</g>
<g style="mix-blend-mode:overlay">
<path style="mix-blend-mode:overlay" d="M346.101 111.135L350.433 110.109C351.147 110.601 351.754 111.232 352.217 111.965C352.681 112.698 352.991 113.518 353.13 114.374C353.13 115.634 352.321 116.749 350.667 117.703C348.234 118.962 345.466 119.422 342.757 119.017C339.327 118.622 336.022 117.493 333.067 115.706C329.615 113.726 327.674 111.783 327.027 109.911C326.379 108.04 327.26 106.474 329.436 105.214C331.535 104.079 333.929 103.602 336.303 103.847C338.154 104.001 339.972 104.432 341.696 105.124L339.575 107.5C338.437 107.008 337.218 106.734 335.979 106.69C334.916 106.624 333.857 106.861 332.923 107.374C332.43 107.563 332.033 107.94 331.817 108.423C331.601 108.905 331.585 109.453 331.773 109.947C332.15 111.009 333.57 112.233 336.051 113.672C338.081 114.96 340.339 115.846 342.703 116.281C344.206 116.571 345.762 116.349 347.125 115.652C347.474 115.505 347.768 115.252 347.964 114.929C348.161 114.606 348.251 114.229 348.222 113.852C347.86 112.723 347.108 111.759 346.101 111.135Z" fill="url(#paint25_linear_3_592)"/>
</g>
<g style="mix-blend-mode:overlay">
<path style="mix-blend-mode:overlay" d="M348.653 107.086C346.947 106.176 345.395 105.004 344.051 103.613C343.411 102.895 342.933 102.048 342.649 101.129C342.43 100.386 342.48 99.5892 342.793 98.8801C343.391 97.8556 344.271 97.0248 345.328 96.4867C347.872 95.1111 350.783 94.5698 353.651 94.9392C357.177 95.3314 360.575 96.4857 363.611 98.3222C366.954 100.242 368.89 102.149 369.417 104.045C369.939 105.844 369.076 107.518 366.793 108.831C364.243 110.21 361.327 110.757 358.451 110.397C354.984 110.018 351.641 108.888 348.653 107.086ZM351.692 105.142C353.69 106.37 355.916 107.178 358.235 107.518C359.908 107.808 361.629 107.549 363.143 106.78C363.686 106.574 364.126 106.161 364.365 105.631C364.604 105.102 364.624 104.499 364.42 103.955C363.47 102.265 362.001 100.926 360.231 100.14C358.252 98.91 356.044 98.0957 353.741 97.7464C352.082 97.4689 350.378 97.7405 348.887 98.5202C347.593 99.276 347.089 100.212 347.521 101.363C348.471 103.037 349.933 104.362 351.692 105.142Z" fill="url(#paint26_linear_3_592)"/>
</g>
</g>
<path d="M197.535 446.169C197.535 446.169 196.996 446.168 196.87 447.68C196.744 449.192 196.007 450.271 197.032 450.973C198.492 451.79 200.17 452.13 201.832 451.945C202.551 451.717 203.248 451.428 203.917 451.081C204.241 450.937 211.917 447.014 211.917 447.014C211.917 447.014 212.493 446.204 212.277 445.647C212.102 445.242 211.833 444.886 211.492 444.607C211.151 444.328 210.748 444.136 210.317 444.045C210.048 443.955 206.057 444.297 204.924 444.405C203.492 444.311 202.071 444.082 200.682 443.721L197.535 446.169Z" fill="#343499"/>
<path d="M196.582 449.21C196.676 449.513 196.828 449.795 197.032 450.038C198.253 450.796 199.678 451.16 201.113 451.081C202.066 451.081 201.832 450.236 202.911 449.804C203.649 449.546 204.442 449.484 205.212 449.624C205.553 449.624 211.288 446.475 211.63 446.223C211.971 445.971 212.079 445.179 212.079 445.143C212.186 445.301 212.277 445.47 212.349 445.647C212.564 446.205 211.989 447.015 211.989 447.015C211.989 447.015 204.313 450.938 203.989 451.081C203.32 451.429 202.622 451.717 201.904 451.945C200.242 452.13 198.563 451.791 197.104 450.974C196.403 450.542 196.439 449.948 196.582 449.21Z" fill="url(#paint27_linear_3_592)"/>
<path d="M183.153 441.292C183.153 441.292 182.614 441.292 182.488 442.822C182.362 444.351 181.625 445.413 182.632 446.115C184.1 446.926 185.784 447.259 187.45 447.068C188.17 446.852 188.868 446.569 189.535 446.223C189.859 446.079 197.535 442.138 197.535 442.138C197.535 442.138 198.111 441.328 197.895 440.788C197.724 440.381 197.456 440.022 197.114 439.743C196.773 439.464 196.368 439.273 195.935 439.186C195.648 439.079 191.675 439.438 190.542 439.528C189.109 439.42 187.688 439.179 186.299 438.809L183.153 441.292Z" fill="#343499"/>
<path d="M182.201 444.351C182.283 444.649 182.43 444.926 182.632 445.161C183.857 445.926 185.289 446.291 186.731 446.205C187.684 446.205 187.45 445.377 188.529 444.927C189.267 444.669 190.06 444.607 190.83 444.747C191.171 444.747 196.906 441.616 197.248 441.364C197.589 441.112 197.679 440.32 197.697 440.284C197.805 440.442 197.895 440.611 197.967 440.788C198.182 441.328 197.607 442.138 197.607 442.138C197.607 442.138 189.895 446.007 189.535 446.223C188.868 446.569 188.17 446.852 187.45 447.068C185.784 447.259 184.1 446.926 182.632 446.115C182.003 445.683 182.039 445.089 182.201 444.351Z" fill="url(#paint28_linear_3_592)"/>
<path d="M197.877 385.255L193.113 382.484C193.006 382.408 192.891 382.341 192.771 382.286C192.515 382.179 192.236 382.133 191.959 382.152C191.681 382.17 191.412 382.253 191.171 382.394L174.56 391.949C173.872 392.347 173.301 392.919 172.903 393.607C172.506 394.296 172.296 395.077 172.295 395.872V410.466C172.293 410.76 172.362 411.049 172.497 411.309C172.631 411.57 172.828 411.793 173.068 411.96L175.1 413.364L178.228 414.965L183.261 407.353L191.621 402.621C192.318 402.222 192.896 401.646 193.297 400.95C193.698 400.255 193.908 399.465 193.904 398.662V391.248L197.877 385.255Z" fill="#4343C9"/>
<path d="M179.989 414.983L196.583 405.553C197.277 405.157 197.853 404.583 198.254 403.891C198.655 403.199 198.866 402.413 198.866 401.612V386.91C198.894 386.571 198.826 386.231 198.669 385.93C198.513 385.628 198.274 385.377 197.98 385.205C197.687 385.034 197.35 384.949 197.011 384.961C196.671 384.973 196.342 385.081 196.061 385.273L179.45 394.828C178.762 395.226 178.191 395.798 177.793 396.486C177.395 397.175 177.186 397.956 177.185 398.751V413.345C177.156 413.684 177.224 414.024 177.381 414.326C177.538 414.628 177.777 414.879 178.071 415.051C178.364 415.222 178.7 415.307 179.04 415.295C179.379 415.283 179.709 415.175 179.989 414.983Z" fill="#867CE2"/>
<path d="M181.086 390.833C181.086 390.833 180.96 409.548 181.086 413.093C181.212 416.639 182.093 425.69 182.039 431.952C181.985 438.215 182.039 440.482 183.171 441.346C184.304 442.21 189.895 441.256 190.596 440.176C191.297 439.096 190.794 424.502 191.207 421.695C191.621 418.888 193.401 407.875 193.401 407.875L192.61 394.81L181.086 390.833Z" fill="#4B4BAA"/>
<path d="M204.619 395.621C204.619 395.621 207.333 416.423 207.117 421.264C206.902 426.104 205.715 442.75 205.32 444.1C204.924 445.449 204.529 446.331 202.713 446.619C201.234 446.955 199.698 446.955 198.219 446.619C197.657 446.481 197.168 446.136 196.851 445.651C196.534 445.167 196.412 444.58 196.511 444.01C196.708 442.75 198.021 425.816 197.607 423.099C197.194 420.382 192.106 408.703 191.405 404.33C190.948 401.158 190.678 397.961 190.596 394.757L204.619 395.621Z" fill="#6666D3"/>
<path d="M205.661 404.114C204.387 403.835 203.242 403.139 202.407 402.135C201.532 400.72 200.78 399.233 200.16 397.69L204.619 395.674L205.661 404.114Z" fill="#4B4BAA"/>
<path d="M181.338 352.162C181.338 352.162 175.28 364.759 174.273 367.512C173.266 370.265 173.374 371.345 174.273 372.713L180.493 382.124L186.605 374.53L188.205 362.095L185.293 354.034L181.338 352.162Z" fill="#867CE2"/>
<path d="M210.137 370.769C210.137 370.769 208.663 364.399 207.333 360.782C206.003 357.165 204.996 356.391 203.594 355.383C202.191 354.376 200.52 353.08 200.52 353.08L187.27 349.967C187.27 349.967 182.398 350.237 181.338 352.126C179.54 355.131 178.641 387.415 179.45 389.736C180.259 392.057 184.088 395.351 190.902 397.096C197.715 398.842 204.528 397.87 206.021 396.808C207.513 395.746 207.818 384.212 207.027 378.705C206.744 377.223 206.886 375.692 207.437 374.287C207.987 372.883 208.923 371.663 210.137 370.769Z" fill="#4343C9"/>
<path d="M198.884 352.432C198.52 351.189 198.297 349.909 198.219 348.617C198.188 346.732 198.363 344.849 198.74 343.002L190.866 341.869C191.449 343.222 191.654 344.709 191.459 346.169C191.269 347.976 190.492 349.67 189.248 350.992C190.89 352.172 192.656 353.167 194.515 353.961C195.594 354.069 198.111 353.961 198.111 353.961L198.884 352.432Z" fill="#F4B489"/>
<path d="M201.095 336.327C202.358 338.034 202.993 340.125 202.893 342.247C202.641 345.738 201.275 348.077 200.232 348.293C198.268 348.429 196.329 347.783 194.839 346.494C193.455 345.036 191.98 339.296 191.98 339.296L199.171 333.087L201.095 336.327Z" fill="#FCBF9D"/>
<path d="M200.789 331.936C202.12 332.781 203.612 334.239 203.558 335.751C203.364 336.897 202.817 337.954 201.994 338.774C201.26 337.658 200.242 336.757 199.046 336.165C197.59 335.553 197.446 336.866 197.446 336.866L194.174 332.638C194.174 332.638 197.931 330.118 200.789 331.936Z" fill="#8480CE"/>
<path d="M197.086 332.637L198.758 331.81C197.017 330.984 195.083 330.654 193.167 330.856C192.414 330.965 191.701 331.268 191.099 331.734C190.498 332.201 190.027 332.816 189.733 333.519C188.407 334.584 187.555 336.13 187.36 337.82C187.217 338.909 187.372 340.017 187.809 341.025C188.246 342.033 188.949 342.903 189.841 343.542C191.513 344.64 191.765 345.342 194.246 344.64C195.202 344.336 196.035 343.734 196.624 342.921C197.213 342.108 197.526 341.127 197.518 340.123C197.194 338.324 198.38 339.134 199.315 337.784C199.737 337.143 199.962 336.392 199.962 335.625C199.962 334.857 199.737 334.106 199.315 333.465C199.074 333.114 198.73 332.847 198.331 332.698C197.933 332.55 197.498 332.529 197.086 332.637Z" fill="#5E56E8"/>
<path d="M201.221 353.242C200.667 352.598 200.066 351.996 199.423 351.442C199.281 351.316 199.108 351.229 198.922 351.191C198.736 351.153 198.543 351.165 198.362 351.226C197.208 351.626 195.97 351.725 194.767 351.514C193.928 351.427 193.118 351.162 192.389 350.737C191.661 350.312 191.031 349.737 190.542 349.049C189.769 347.771 187.109 349.265 187.27 350.092C187.587 351.038 188.124 351.896 188.837 352.593C189.549 353.291 190.417 353.809 191.369 354.105C193.78 355.055 196.412 355.298 198.956 354.807C199.765 354.663 200.412 354.501 200.879 354.375C201.004 354.36 201.121 354.308 201.216 354.227C201.312 354.146 201.382 354.04 201.418 353.919C201.454 353.799 201.455 353.672 201.42 353.551C201.385 353.431 201.316 353.323 201.221 353.242Z" fill="#867CE2"/>
<path d="M221.05 364.417L222.847 361.609C222.847 361.609 224.645 361.807 225.167 360.872C225.688 359.936 226.587 358.568 226.227 357.435C225.88 356.628 225.305 355.94 224.573 355.455C225.3 354.016 225.901 352.517 226.371 350.974C226.349 350.878 226.301 350.789 226.232 350.717C226.164 350.645 226.078 350.592 225.983 350.565C225.887 350.537 225.787 350.536 225.691 350.56C225.594 350.585 225.507 350.635 225.436 350.704C225.131 350.938 222.991 354.501 222.991 354.501C222.991 354.501 221.733 354.933 220.906 357.165C220.542 357.974 220.282 358.827 220.133 359.702L218.964 361.501L221.05 364.417Z" fill="#FCBF9D"/>
<path d="M220.852 366.685L221.895 365.011L218.838 360.944L217.544 363.176L220.852 366.685Z" fill="#4B4BAA"/>
<path d="M220.978 366.018C221.11 366.219 221.181 366.453 221.181 366.693C221.181 366.933 221.11 367.168 220.978 367.368C219.27 370.283 212.6 381.44 210.084 382.034C208.286 382.448 204.367 376.905 202.263 371.399C200.16 365.892 199.063 362.401 199.765 359.774C200.466 357.147 202.749 354.735 204.295 355.923C205.841 357.111 207.567 359 208.969 365.101L210.371 371.201C210.371 371.201 215.585 364.003 216.484 362.869C216.678 362.611 216.901 362.375 217.149 362.167C217.228 362.1 217.319 362.05 217.418 362.02C217.517 361.99 217.622 361.98 217.724 361.992C217.827 362.004 217.927 362.037 218.016 362.088C218.106 362.14 218.184 362.21 218.245 362.293L220.978 366.018Z" fill="#867CE2"/>
<path d="M221.895 365.03L222.272 364.436C222.356 364.324 222.4 364.188 222.4 364.049C222.4 363.909 222.356 363.774 222.272 363.662L219.774 360.296C219.739 360.244 219.692 360.201 219.637 360.172C219.583 360.142 219.521 360.127 219.459 360.127C219.397 360.127 219.335 360.142 219.28 360.172C219.225 360.201 219.179 360.244 219.144 360.296L218.857 360.908L221.895 365.03Z" fill="#F5E6FF"/>
<path d="M195.972 351.622L195.594 351.532C196.545 351.574 197.496 351.439 198.398 351.136C198.579 351.075 198.772 351.063 198.958 351.101C199.144 351.139 199.317 351.226 199.459 351.352C200.102 351.907 200.703 352.508 201.257 353.152C201.318 353.222 201.363 353.305 201.389 353.395C201.415 353.484 201.421 353.579 201.408 353.671C201.394 353.763 201.361 353.851 201.31 353.93C201.259 354.008 201.192 354.074 201.113 354.124C199.581 352.958 197.834 352.107 195.972 351.622Z" fill="#FFE9F4"/>
<path d="M285.787 468.716V436.217L248.034 435.461V467.601C247.971 467.826 247.99 468.066 248.089 468.277C248.188 468.489 248.36 468.657 248.573 468.752L265.67 478.866C266.219 479.123 266.821 479.247 267.427 479.228C268.032 479.209 268.625 479.048 269.157 478.758L284.87 469.904C285.535 469.598 285.823 469.148 285.787 468.716Z" fill="url(#paint29_linear_3_592)"/>
<path d="M265.724 446.204L248.627 436.091C247.746 435.551 247.854 434.652 248.897 434.076L264.609 425.204C265.143 424.918 265.735 424.759 266.34 424.74C266.946 424.721 267.547 424.843 268.097 425.096L285.175 435.209C286.056 435.731 285.948 436.631 284.906 437.225L269.194 446.078C268.665 446.369 268.076 446.531 267.474 446.553C266.871 446.575 266.272 446.456 265.724 446.204Z" fill="url(#paint30_linear_3_592)"/>
<path d="M315.108 485.848V420.328L277.355 419.59V484.786C277.289 485.008 277.307 485.248 277.407 485.457C277.506 485.667 277.68 485.832 277.894 485.92L294.991 496.051C295.541 496.304 296.142 496.426 296.747 496.407C297.353 496.388 297.945 496.23 298.479 495.943L314.191 487.072C314.447 486.98 314.67 486.816 314.833 486.598C314.996 486.38 315.092 486.119 315.108 485.848Z" fill="url(#paint31_linear_3_592)"/>
<path d="M295.045 430.315L277.984 420.202C277.104 419.68 277.211 418.78 278.254 418.186L293.966 409.333C294.498 409.042 295.091 408.881 295.697 408.862C296.303 408.843 296.905 408.968 297.454 409.225L314.55 419.338C315.431 419.86 315.323 420.759 314.281 421.353L298.569 430.207C298.032 430.503 297.432 430.668 296.82 430.686C296.207 430.705 295.599 430.578 295.045 430.315Z" fill="url(#paint32_linear_3_592)"/>
<path d="M503.583 345.63V273.128L461.857 272.3V344.46C461.789 344.709 461.813 344.974 461.926 345.205C462.038 345.437 462.231 345.62 462.468 345.72L481.398 356.931C482.005 357.212 482.669 357.347 483.337 357.325C484.005 357.304 484.659 357.125 485.246 356.805L502.702 347.034C503.313 346.602 503.636 346.098 503.583 345.63Z" fill="url(#paint33_linear_3_592)"/>
<path d="M481.398 284.176L462.468 272.983C461.479 272.39 461.605 271.4 462.756 270.752L480.158 260.945C480.745 260.624 481.398 260.446 482.066 260.424C482.735 260.402 483.398 260.537 484.005 260.819L502.935 272.03C503.906 272.606 503.78 273.595 502.629 274.243L485.245 284.05C484.659 284.371 484.005 284.549 483.337 284.571C482.669 284.593 482.005 284.458 481.398 284.176Z" fill="#EAD6E2"/>
<path d="M142.615 405.788V376.708L108.889 376.042V404.834C108.832 405.035 108.851 405.25 108.94 405.438C109.029 405.627 109.183 405.776 109.374 405.86L124.673 414.858C125.165 415.087 125.705 415.199 126.248 415.183C126.791 415.168 127.323 415.025 127.801 414.768L141.859 406.832C142.399 406.58 142.668 406.166 142.615 405.788Z" fill="url(#paint34_linear_3_592)"/>
<path d="M124.673 385.651L109.374 376.654C108.583 376.186 108.691 375.394 109.626 374.854L123.684 366.936C124.158 366.677 124.687 366.533 125.227 366.514C125.767 366.495 126.303 366.603 126.794 366.828L142.093 375.826C142.884 376.294 142.776 377.086 141.859 377.626L127.783 385.543C127.309 385.804 126.781 385.949 126.241 385.968C125.701 385.987 125.164 385.878 124.673 385.651Z" fill="url(#paint35_linear_3_592)"/>
<path opacity="0.5" d="M307.503 137.678L197.841 72.7515C192.16 69.3864 192.951 63.61 199.639 59.867L300.42 3.02035C307.054 -0.722642 317.049 -1.02856 322.73 2.33653L432.392 67.263C438.073 70.6281 437.282 76.3865 430.594 80.1295L329.813 136.994C323.161 140.737 313.184 141.043 307.503 137.678Z" fill="#EAB6FF"/>
<path style="mix-blend-mode:overlay" opacity="0.4" d="M430.594 80.1296L329.813 136.994C323.161 140.737 313.184 141.043 307.503 137.678L197.841 72.7516C196.803 72.2498 195.911 71.4901 195.25 70.5449C194.59 69.5998 194.182 68.5009 194.066 67.353V136.778C194.152 137.951 194.547 139.08 195.21 140.05C195.873 141.02 196.781 141.798 197.841 142.303L307.503 207.229C313.184 210.594 323.179 210.288 329.813 206.527L430.594 149.681C434.388 147.539 436.257 144.75 436.113 142.105V72.8236C436.185 75.4328 434.226 78.0781 430.594 80.1296Z" fill="url(#paint36_linear_3_592)"/>
<g opacity="0.25">
<path d="M430.594 80.1296L329.813 136.994C323.161 140.737 313.184 141.043 307.503 137.678L197.841 72.7516C196.803 72.2498 195.911 71.4901 195.25 70.5449C194.59 69.5998 194.182 68.5009 194.066 67.353V136.778C194.152 137.951 194.547 139.08 195.21 140.05C195.873 141.02 196.781 141.798 197.841 142.303L307.503 207.229C313.184 210.594 323.179 210.288 329.813 206.527L430.594 149.681C434.388 147.539 436.257 144.75 436.113 142.105V72.8236C436.185 75.4328 434.226 78.0781 430.594 80.1296Z" fill="url(#paint37_linear_3_592)" style="mix-blend-mode:lighten"/>
</g>
<path d="M401.255 445.413C406.504 449.471 410.494 454.937 412.761 461.177C416.878 471.974 430.846 482.771 430.846 482.771L486.522 516.188L558 474.169L502.27 440.698C502.27 440.698 488.32 429.901 484.293 419.194C482.042 412.971 478.063 407.52 472.823 403.484L417.471 371.237L346.047 413.201L401.255 445.413Z" fill="url(#paint38_linear_3_592)"/>
<path d="M458.909 387.613C452.203 376.006 434.334 367.71 413.264 367.71C392.195 367.71 374.343 376.006 367.638 387.613H364.743V397.726C364.743 414.317 386.478 427.76 413.282 427.76C440.087 427.76 461.821 414.317 461.821 397.726V387.613H458.909Z" fill="#E06703"/>
<path style="mix-blend-mode:overlay" d="M373.139 397.726V414.605C384.195 424.287 398.918 427.76 415.601 427.76V417.629L373.139 397.726Z" fill="url(#paint39_linear_3_592)"/>
<path d="M413.264 417.628C440.071 417.628 461.803 404.19 461.803 387.613C461.803 371.035 440.071 357.597 413.264 357.597C386.457 357.597 364.725 371.035 364.725 387.613C364.725 404.19 386.457 417.628 413.264 417.628Z" fill="#FFD81D"/>
<path style="mix-blend-mode:overlay" d="M380.869 409.908L450.873 368.628C441.992 361.897 428.509 357.615 413.408 357.579L364.743 387.594C364.743 396.466 370.981 404.402 380.869 409.908Z" fill="url(#paint40_linear_3_592)"/>
<path style="mix-blend-mode:overlay" d="M413.264 417.628C414.019 417.628 414.738 417.628 415.475 417.628L461.569 390.474C461.719 389.551 461.798 388.619 461.803 387.685C461.772 384.913 461.159 382.178 460.005 379.659L397.714 416.027C402.828 417.095 408.039 417.631 413.264 417.628Z" fill="url(#paint41_linear_3_592)"/>
<path d="M413.264 408.847C434.67 408.847 452.023 398.735 452.023 386.263C452.023 373.79 434.67 363.679 413.264 363.679C391.858 363.679 374.505 373.79 374.505 386.263C374.505 398.735 391.858 408.847 413.264 408.847Z" fill="#F9B815"/>
<path style="mix-blend-mode:overlay" opacity="0.5" d="M405.929 408.505L451.286 381.764C449.381 376.366 444.185 371.741 437.03 368.502C431.646 367.309 426.149 366.706 420.635 366.702L376.752 393.695C381.246 401.271 392.302 406.975 405.929 408.505Z" fill="url(#paint42_linear_3_592)"/>
<path d="M413.264 363.661C391.871 363.661 374.523 373.774 374.523 386.263C374.537 387.375 374.688 388.481 374.972 389.556C377.705 378.633 393.795 370.247 413.264 370.247C432.734 370.247 448.841 378.633 451.574 389.556C451.858 388.481 452.009 387.375 452.023 386.263C452.023 373.774 434.675 363.661 413.264 363.661Z" fill="#DD7105"/>
<path style="mix-blend-mode:overlay" d="M413.336 363.661C409.533 363.662 405.738 363.993 401.992 364.651V371.255C405.736 370.583 409.533 370.245 413.336 370.247C425.92 370.247 436.976 373.738 444.06 379.119V372.533C436.994 367.152 425.866 363.661 413.336 363.661Z" fill="url(#paint43_linear_3_592)"/>
<path d="M434.711 398.643C436.009 397.489 436.845 395.904 437.066 394.181V389.862L434.118 388.638C433.471 388.135 432.786 387.684 432.068 387.289C429.36 385.769 426.327 384.924 423.224 384.823C419.005 384.908 414.835 385.742 410.909 387.289L401.075 381.782C403.401 381.225 405.842 381.394 408.069 382.268L413.462 378.075V374.08L406.523 376.455C405.822 376.455 405.138 376.455 404.437 376.455C401.32 376.542 398.256 377.29 395.449 378.651L394.172 377.949L394.837 377.625V375.826L389.444 375.466V381.746L391.152 380.414L391.943 380.846C391.216 381.367 390.553 381.971 389.965 382.646L388.348 382.106V386.713C388.509 388.782 389.983 390.582 392.734 392.111C395.553 393.671 398.701 394.54 401.92 394.649C405.786 394.75 409.637 394.14 413.282 392.849L423.835 398.733C422.344 399.032 420.82 399.122 419.305 399.003C418.229 398.923 417.164 398.742 416.123 398.463L416.374 397.6L408.608 398.194V402.188C412.11 403.68 415.877 404.445 419.682 404.438C423.206 404.4 426.682 403.609 429.875 402.117L434.46 404.672L438.055 402.53V398.535L434.711 398.643ZM402.028 389.178C400.884 389.111 399.768 388.798 398.756 388.26C398.339 388.064 397.965 387.786 397.657 387.443C397.348 387.1 397.111 386.699 396.959 386.263C396.846 385.851 396.843 385.416 396.951 385.003C397.058 384.589 397.271 384.211 397.57 383.905L406.271 388.782C404.887 389.143 403.455 389.277 402.028 389.178ZM427.934 396.736L418.118 391.247C419.743 390.66 421.46 390.373 423.188 390.402C424.544 390.438 425.873 390.789 427.071 391.427C427.595 391.659 428.059 392.009 428.427 392.449C428.795 392.889 429.056 393.407 429.192 393.965C429.242 394.504 429.145 395.047 428.91 395.535C428.676 396.023 428.314 396.438 427.862 396.736H427.934Z" fill="#E06703"/>
<path d="M423.924 394.685L413.372 388.8C409.729 390.1 405.876 390.71 402.01 390.6C398.791 390.492 395.643 389.622 392.824 388.062C390.073 386.533 388.599 384.733 388.437 382.664C388.275 380.594 389.462 378.651 392.033 376.797L389.444 375.466L393.039 373.324L395.538 374.71C398.345 373.349 401.409 372.601 404.527 372.515C407.601 372.432 410.659 372.977 413.516 374.116L408.122 378.309C405.896 377.436 403.455 377.266 401.129 377.823L410.963 383.33C414.889 381.783 419.059 380.949 423.277 380.864C426.38 380.965 429.414 381.811 432.122 383.33C435.154 385.021 436.808 386.989 437.084 389.232C437.372 391.463 436.131 393.677 433.399 395.854L438.109 398.482L434.513 400.623L429.929 398.068C426.738 399.568 423.261 400.36 419.736 400.389C415.931 400.396 412.163 399.631 408.662 398.14L414.432 393.821C416.025 394.416 417.697 394.774 419.394 394.883C420.906 395.025 422.431 394.959 423.924 394.685ZM397.498 379.911C397.199 380.216 396.986 380.594 396.878 381.008C396.771 381.421 396.774 381.856 396.887 382.268C397.039 382.704 397.276 383.105 397.584 383.448C397.893 383.791 398.267 384.069 398.684 384.265C399.696 384.803 400.812 385.116 401.956 385.183C403.382 385.282 404.815 385.148 406.199 384.787L397.498 379.911ZM427.862 392.741C428.3 392.434 428.648 392.016 428.87 391.528C429.091 391.04 429.178 390.502 429.12 389.97C428.983 389.415 428.721 388.9 428.353 388.463C427.985 388.026 427.522 387.68 426.999 387.451C425.806 386.798 424.474 386.44 423.116 386.407C421.387 386.376 419.667 386.669 418.046 387.271L427.862 392.741Z" fill="#FFD81D"/>
<g style="mix-blend-mode:overlay">
<g style="mix-blend-mode:overlay">
<path style="mix-blend-mode:overlay" d="M423.925 394.685L413.372 388.8C409.729 390.1 405.876 390.71 402.01 390.6C398.791 390.492 395.643 389.622 392.824 388.062C390.073 386.533 388.599 384.733 388.437 382.664C388.276 380.594 389.462 378.651 392.033 376.797L389.444 375.466L393.04 373.324L395.538 374.71C398.346 373.349 401.409 372.601 404.527 372.515C407.601 372.432 410.659 372.977 413.516 374.116L408.123 378.309C405.896 377.436 403.455 377.266 401.129 377.823L410.963 383.33C414.889 381.783 419.059 380.949 423.278 380.864C426.381 380.965 429.414 381.811 432.122 383.33C435.155 385.021 436.809 386.989 437.084 389.232C437.372 391.463 436.131 393.677 433.399 395.854L438.109 398.482L434.513 400.623L429.929 398.068C426.738 399.568 423.261 400.36 419.736 400.389C415.931 400.396 412.164 399.631 408.662 398.14L414.433 393.821C416.026 394.416 417.697 394.774 419.394 394.883C420.906 395.025 422.431 394.959 423.925 394.685ZM397.498 379.911C397.199 380.216 396.986 380.594 396.879 381.008C396.771 381.421 396.774 381.856 396.887 382.268C397.039 382.704 397.276 383.105 397.585 383.448C397.893 383.791 398.267 384.069 398.685 384.265C399.697 384.803 400.812 385.116 401.956 385.183C403.383 385.282 404.816 385.148 406.199 384.787L397.498 379.911ZM427.862 392.741C428.3 392.434 428.649 392.016 428.87 391.528C429.092 391.04 429.178 390.502 429.12 389.97C428.983 389.415 428.721 388.9 428.353 388.463C427.985 388.026 427.522 387.68 426.999 387.451C425.806 386.798 424.475 386.44 423.116 386.407C421.387 386.376 419.668 386.669 418.046 387.271L427.862 392.741Z" fill="url(#paint44_linear_3_592)"/>
</g>
</g>
<defs>
<linearGradient id="paint0_linear_3_592" x1="337.184" y1="383.366" x2="213.23" y2="383.366" gradientUnits="userSpaceOnUse">
<stop stop-color="#BA83FF"/>
<stop offset="1" stop-color="#D8ABFF"/>
</linearGradient>
<linearGradient id="paint1_linear_3_592" x1="1329.28" y1="973.678" x2="12.1766" y2="206.399" gradientUnits="userSpaceOnUse">
<stop stop-color="#9C74FF"/>
<stop offset="1" stop-color="#FFF6FF"/>
</linearGradient>
<linearGradient id="paint2_linear_3_592" x1="152.178" y1="232.926" x2="145.481" y2="221.127" gradientUnits="userSpaceOnUse">
<stop stop-color="#886AFF"/>
<stop offset="1" stop-color="#D3C2FF"/>
</linearGradient>
<linearGradient id="paint3_linear_3_592" x1="113.096" y1="306.742" x2="118.982" y2="315.663" gradientUnits="userSpaceOnUse">
<stop stop-color="#D32986"/>
<stop offset="1" stop-color="#D3C2FF"/>
</linearGradient>
<linearGradient id="paint4_linear_3_592" x1="98.4979" y1="339.061" x2="109.287" y2="233.396" gradientUnits="userSpaceOnUse">
<stop stop-color="#D32986"/>
<stop offset="1" stop-color="#00FFE2"/>
</linearGradient>
<linearGradient id="paint5_linear_3_592" x1="336.861" y1="294.991" x2="298.82" y2="294.991" gradientUnits="userSpaceOnUse">
<stop stop-color="#867CE2"/>
<stop offset="1" stop-color="#B590FF"/>
</linearGradient>
<linearGradient id="paint6_linear_3_592" x1="928.406" y1="585.811" x2="276.606" y2="112.809" gradientUnits="userSpaceOnUse">
<stop stop-color="#6318FF"/>
<stop offset="0.61" stop-color="#C29FED"/>
<stop offset="1" stop-color="#FFF6FF"/>
</linearGradient>
<linearGradient id="paint7_linear_3_592" x1="26021.4" y1="16851.3" x2="19690.7" y2="10337.4" gradientUnits="userSpaceOnUse">
<stop stop-color="#D32986"/>
<stop offset="1" stop-color="#EAD6E2"/>
</linearGradient>
<linearGradient id="paint8_linear_3_592" x1="70066.1" y1="-20179.2" x2="58552.1" y2="-32063.8" gradientUnits="userSpaceOnUse">
<stop stop-color="#6318FF"/>
<stop offset="1" stop-color="white"/>
</linearGradient>
<linearGradient id="paint9_linear_3_592" x1="26051.7" y1="15274.1" x2="19722.5" y2="8755.71" gradientUnits="userSpaceOnUse">
<stop stop-color="#D32986"/>
<stop offset="1" stop-color="#EAD6E2"/>
</linearGradient>
<linearGradient id="paint10_linear_3_592" x1="70538.6" y1="-21541.8" x2="59025.2" y2="-33426.5" gradientUnits="userSpaceOnUse">
<stop stop-color="#6318FF"/>
<stop offset="1" stop-color="white"/>
</linearGradient>
<linearGradient id="paint11_linear_3_592" x1="26051.3" y1="13688" x2="19726.7" y2="7170.59" gradientUnits="userSpaceOnUse">
<stop stop-color="#D32986"/>
<stop offset="1" stop-color="#EAD6E2"/>
</linearGradient>
<linearGradient id="paint12_linear_3_592" x1="71339.4" y1="-22725.6" x2="59825.4" y2="-34610.2" gradientUnits="userSpaceOnUse">
<stop stop-color="#6318FF"/>
<stop offset="1" stop-color="white"/>
</linearGradient>
<linearGradient id="paint13_linear_3_592" x1="406.631" y1="336.344" x2="464.163" y2="365.217" gradientUnits="userSpaceOnUse">
<stop stop-color="#75114D"/>
<stop offset="1" stop-color="#EAD6E2"/>
</linearGradient>
<linearGradient id="paint14_linear_3_592" x1="94.3633" y1="125.567" x2="360.61" y2="142.09" gradientUnits="userSpaceOnUse">
<stop stop-color="#D10B57"/>
<stop offset="1" stop-color="white"/>
</linearGradient>
<linearGradient id="paint15_linear_3_592" x1="15967.9" y1="13426.8" x2="29061.9" y2="-175.89" gradientUnits="userSpaceOnUse">
<stop stop-color="#D10B57"/>
<stop offset="1" stop-color="white"/>
</linearGradient>
<linearGradient id="paint16_linear_3_592" x1="20002.3" y1="10188.7" x2="24387.6" y2="3726.22" gradientUnits="userSpaceOnUse">
<stop stop-color="#D10B57"/>
<stop offset="1" stop-color="white"/>
</linearGradient>
<linearGradient id="paint17_linear_3_592" x1="18624.9" y1="9919.53" x2="27699.1" y2="-298.664" gradientUnits="userSpaceOnUse">
<stop stop-color="#D10B57"/>
<stop offset="1" stop-color="white"/>
</linearGradient>
<linearGradient id="paint18_linear_3_592" x1="15300.7" y1="2391.65" x2="16667.3" y2="44.1375" gradientUnits="userSpaceOnUse">
<stop stop-color="#D10B57"/>
<stop offset="1" stop-color="white"/>
</linearGradient>
<linearGradient id="paint19_linear_3_592" x1="6073.51" y1="2165.7" x2="6347.72" y2="1399.85" gradientUnits="userSpaceOnUse">
<stop stop-color="#D10B57"/>
<stop offset="1" stop-color="white"/>
</linearGradient>
<linearGradient id="paint20_linear_3_592" x1="5934.43" y1="2087.96" x2="6192.07" y2="1362.98" gradientUnits="userSpaceOnUse">
<stop stop-color="#D10B57"/>
<stop offset="1" stop-color="white"/>
</linearGradient>
<linearGradient id="paint21_linear_3_592" x1="7702.54" y1="2678.83" x2="8029.36" y2="1753.18" gradientUnits="userSpaceOnUse">
<stop stop-color="#D10B57"/>
<stop offset="1" stop-color="white"/>
</linearGradient>
<linearGradient id="paint22_linear_3_592" x1="7376.35" y1="2549.9" x2="7682.47" y2="1682.64" gradientUnits="userSpaceOnUse">
<stop stop-color="#D10B57"/>
<stop offset="1" stop-color="white"/>
</linearGradient>
<linearGradient id="paint23_linear_3_592" x1="7631.01" y1="2655.57" x2="7948.41" y2="1766.47" gradientUnits="userSpaceOnUse">
<stop stop-color="#D10B57"/>
<stop offset="1" stop-color="white"/>
</linearGradient>
<linearGradient id="paint24_linear_3_592" x1="5738.47" y1="2025.71" x2="5965.92" y2="1385.74" gradientUnits="userSpaceOnUse">
<stop stop-color="#D10B57"/>
<stop offset="1" stop-color="white"/>
</linearGradient>
<linearGradient id="paint25_linear_3_592" x1="6371.77" y1="2266.37" x2="6628.47" y2="1553.67" gradientUnits="userSpaceOnUse">
<stop stop-color="#D10B57"/>
<stop offset="1" stop-color="white"/>
</linearGradient>
<linearGradient id="paint26_linear_3_592" x1="6672.64" y1="2341.27" x2="6932.59" y2="1613.14" gradientUnits="userSpaceOnUse">
<stop stop-color="#D10B57"/>
<stop offset="1" stop-color="white"/>
</linearGradient>
<linearGradient id="paint27_linear_3_592" x1="219.433" y1="438.197" x2="170.517" y2="467.354" gradientUnits="userSpaceOnUse">
<stop stop-color="#FFD9EA"/>
<stop offset="1" stop-color="white"/>
</linearGradient>
<linearGradient id="paint28_linear_3_592" x1="-22460.2" y1="2272.19" x2="-22256" y2="2537.29" gradientUnits="userSpaceOnUse">
<stop stop-color="#FFD9EA"/>
<stop offset="1" stop-color="white"/>
</linearGradient>
<linearGradient id="paint29_linear_3_592" x1="269.571" y1="457.379" x2="264.358" y2="457.379" gradientUnits="userSpaceOnUse">
<stop stop-color="#867CE2"/>
<stop offset="1" stop-color="#B49DFF"/>
</linearGradient>
<linearGradient id="paint30_linear_3_592" x1="10990" y1="7310.81" x2="9429.63" y2="5350.11" gradientUnits="userSpaceOnUse">
<stop stop-color="#6318FF"/>
<stop offset="1" stop-color="white"/>
</linearGradient>
<linearGradient id="paint31_linear_3_592" x1="9295.58" y1="22056.5" x2="9185.98" y2="22056.5" gradientUnits="userSpaceOnUse">
<stop stop-color="#867CE2"/>
<stop offset="1" stop-color="#B49DFF"/>
</linearGradient>
<linearGradient id="paint32_linear_3_592" x1="11640.3" y1="7105.43" x2="10079.3" y2="5144.12" gradientUnits="userSpaceOnUse">
<stop stop-color="#6318FF"/>
<stop offset="1" stop-color="white"/>
</linearGradient>
<linearGradient id="paint33_linear_3_592" x1="14768.2" y1="17455.6" x2="14634.1" y2="17455.6" gradientUnits="userSpaceOnUse">
<stop stop-color="#867CE2"/>
<stop offset="1" stop-color="#B49DFF"/>
</linearGradient>
<linearGradient id="paint34_linear_3_592" x1="4958.81" y1="10044.7" x2="4871.02" y2="10044.7" gradientUnits="userSpaceOnUse">
<stop stop-color="#867CE2"/>
<stop offset="1" stop-color="#B49DFF"/>
</linearGradient>
<linearGradient id="paint35_linear_3_592" x1="6844.69" y1="5770.13" x2="5600.88" y2="4201.31" gradientUnits="userSpaceOnUse">
<stop stop-color="#6318FF"/>
<stop offset="1" stop-color="white"/>
</linearGradient>
<linearGradient id="paint36_linear_3_592" x1="333.894" y1="138.524" x2="298.82" y2="138.524" gradientUnits="userSpaceOnUse">
<stop stop-color="#8161E2"/>
<stop offset="1" stop-color="#CACCFF"/>
</linearGradient>
<linearGradient id="paint37_linear_3_592" x1="333.894" y1="138.524" x2="298.82" y2="138.524" gradientUnits="userSpaceOnUse">
<stop stop-color="#8161E2"/>
<stop offset="1" stop-color="#9554FF"/>
</linearGradient>
<linearGradient id="paint38_linear_3_592" x1="370.658" y1="325.889" x2="499.008" y2="511.354" gradientUnits="userSpaceOnUse">
<stop stop-color="#75114D"/>
<stop offset="1" stop-color="#D4328C"/>
</linearGradient>
<linearGradient id="paint39_linear_3_592" x1="9964.16" y1="7980.68" x2="13791.1" y2="8316.78" gradientUnits="userSpaceOnUse">
<stop stop-color="#D10B57"/>
<stop offset="1" stop-color="white"/>
</linearGradient>
<linearGradient id="paint40_linear_3_592" x1="19118.6" y1="15464.7" x2="24005.6" y2="10388.4" gradientUnits="userSpaceOnUse">
<stop stop-color="#D10B57"/>
<stop offset="1" stop-color="white"/>
</linearGradient>
<linearGradient id="paint41_linear_3_592" x1="17339.7" y1="11480.5" x2="18970.9" y2="9071.23" gradientUnits="userSpaceOnUse">
<stop stop-color="#D10B57"/>
<stop offset="1" stop-color="white"/>
</linearGradient>
<linearGradient id="paint42_linear_3_592" x1="18373.8" y1="12124.1" x2="21760.3" y2="8314.12" gradientUnits="userSpaceOnUse">
<stop stop-color="#D10B57"/>
<stop offset="1" stop-color="white"/>
</linearGradient>
<linearGradient id="paint43_linear_3_592" x1="12290.6" y1="4222.55" x2="12800.5" y2="3346.77" gradientUnits="userSpaceOnUse">
<stop stop-color="#D10B57"/>
<stop offset="1" stop-color="white"/>
</linearGradient>
<linearGradient id="paint44_linear_3_592" x1="14340.8" y1="7884.14" x2="14777.1" y2="6998.98" gradientUnits="userSpaceOnUse">
<stop stop-color="#D10B57"/>
<stop offset="1" stop-color="white"/>
</linearGradient>
</defs>
</svg>
