<svg width="196" height="70" viewBox="0 0 196 70" fill="none" xmlns="http://www.w3.org/2000/svg">
<path d="M192.685 28.4661C190.684 28.4661 189.37 29.7112 189.37 31.3238C189.37 32.9365 190.683 34.1825 192.685 34.1825C194.688 34.1825 196 32.9373 196 31.2398C196 29.6272 194.688 28.4661 192.685 28.4661Z" fill="#D62287"/>
<path d="M94.0423 11.5243H86.3256V4.08675H80.667V23.8898H86.3256V16.1653H94.0423V23.8898H99.7018V4.08325H94.0423V11.5243Z" fill="#D62287"/>
<path d="M111.56 8.29883C106.673 8.29883 103.043 11.5818 103.043 16.1931C103.043 20.7772 106.616 24.1442 112.132 24.1442C115.076 24.1442 117.248 23.2946 118.733 21.654L115.876 18.7113C114.908 19.6098 113.623 20.0881 112.303 20.0413C110.302 20.0413 108.959 19.1357 108.501 17.58H119.762C119.79 17.1556 119.849 16.6463 119.849 16.25C119.849 11.1855 116.134 8.29883 111.561 8.29883H111.56ZM108.415 14.7502C108.555 14.0105 108.948 13.3427 109.527 12.8622C110.106 12.3817 110.835 12.1187 111.588 12.1187C112.34 12.1187 113.069 12.3817 113.649 12.8622C114.228 13.3427 114.621 14.0105 114.76 14.7502H108.415Z" fill="#D62287"/>
<path d="M129.536 8.29955C127.139 8.25826 124.777 8.87472 122.706 10.0819L124.535 13.7324C125.763 12.8649 127.231 12.4002 128.735 12.4024C130.878 12.4024 131.936 13.2774 132.022 14.8358H128.935C124.134 14.8358 122.048 16.5858 122.048 19.4199C122.048 22.0799 124.106 24.145 127.823 24.145C130.081 24.145 131.625 23.3811 132.396 21.9093V23.8903H137.455V15.3739C137.455 10.5072 134.567 8.29955 129.538 8.29955H129.536ZM132.025 18.9667C131.831 19.5154 131.465 19.9862 130.98 20.3078C130.495 20.6295 129.919 20.7844 129.338 20.7491C128.052 20.7491 127.309 20.0981 127.309 19.1924C127.309 18.2588 127.938 17.6358 129.681 17.6358H132.025V18.9667Z" fill="#D62287"/>
<path d="M147.456 2.89624H142.025V23.8919H147.456V2.89624Z" fill="#D62287"/>
<path d="M160.945 19.9865C160.718 19.9975 160.49 19.9588 160.28 19.8731C160.069 19.7873 159.879 19.6565 159.724 19.4899C159.569 19.3233 159.452 19.1248 159.381 18.9083C159.311 18.6918 159.288 18.4625 159.316 18.2365V13.1396H162.859V9.12072H159.316V5.13159H153.885V9.12072H151.628V13.1387H153.885V18.2881C153.885 22.2212 156.201 24.1454 160.173 24.1454C161.486 24.1958 162.789 23.8936 163.945 23.2704L162.602 19.5079C162.109 19.8275 161.532 19.9949 160.944 19.9891" fill="#D62287"/>
<path d="M177.264 8.29868C175.555 8.24588 173.891 8.84245 172.605 9.96818V2.8938H167.175V23.8895H172.605V16.4764C172.605 13.9302 173.948 12.8539 175.692 12.8539C177.267 12.8539 178.236 13.7876 178.236 15.9943V23.8886H183.666V15.1176C183.666 10.3637 180.893 8.29781 177.264 8.29781" fill="#D62287"/>
<path d="M190.923 6.85676C192.924 6.85676 194.238 5.61251 194.238 3.91413C194.238 2.30063 192.926 1.14038 190.923 1.14038C188.92 1.14038 187.607 2.38551 187.607 3.99901C187.607 5.61251 188.92 6.85676 190.923 6.85676Z" fill="#D62287"/>
<path d="M193.638 8.55396H188.208V23.8901H193.638V8.55396Z" fill="#D62287"/>
<path d="M106.661 31.7449L102.692 44.5059L98.8862 31.7449H93.9739L89.9787 44.393L86.1724 31.7449H80.666L86.791 51.5523H92.5135L96.2927 39.4983L99.909 51.5523H105.634L111.759 31.7449H106.661Z" fill="#D62287"/>
<path d="M119.131 35.9601C114.243 35.9601 110.613 39.2422 110.613 43.8544C110.613 48.4385 114.186 51.8055 119.702 51.8055C122.646 51.8055 124.817 50.9567 126.304 49.3152L123.446 46.3726C122.478 47.2712 121.193 47.7492 119.873 47.7017C117.872 47.7017 116.529 46.7961 116.072 45.2404H127.333C127.362 44.816 127.42 44.3067 127.42 43.9104C127.42 38.8459 123.705 35.9592 119.132 35.9592L119.131 35.9601ZM115.988 42.4106C116.127 41.6709 116.521 41.0031 117.1 40.5226C117.679 40.0421 118.408 39.7791 119.161 39.7791C119.913 39.7791 120.642 40.0421 121.222 40.5226C121.801 41.0031 122.194 41.6709 122.333 42.4106H115.988Z" fill="#D62287"/>
<path d="M136.107 35.9602C133.711 35.9189 131.348 36.5354 129.277 37.7426L131.106 41.3931C132.334 40.5256 133.802 40.0608 135.306 40.0631C137.45 40.0631 138.507 40.9381 138.592 42.4965H135.506C130.705 42.4965 128.619 44.2465 128.619 47.0806C128.619 49.7406 130.676 51.8056 134.394 51.8056C136.652 51.8056 138.196 51.0417 138.967 49.57V51.551H144.025V43.0337C144.025 38.1669 141.138 35.9602 136.109 35.9602H136.107ZM138.593 46.6265C138.4 47.1753 138.034 47.6461 137.549 47.9678C137.064 48.2894 136.488 48.4443 135.907 48.4088C134.621 48.4088 133.878 47.7578 133.878 46.8522C133.878 45.9186 134.506 45.2956 136.249 45.2956H138.593V46.6265Z" fill="#D62287"/>
<path d="M152.311 30.5554H146.881V51.5511H152.311V30.5554Z" fill="#D62287"/>
<path d="M164.085 47.6469C163.858 47.6579 163.631 47.6192 163.42 47.5335C163.209 47.4477 163.019 47.3169 162.864 47.1503C162.709 46.9837 162.592 46.7852 162.522 46.5687C162.451 46.3522 162.429 46.1229 162.456 45.8969V40.8H166V36.7811H162.456V32.792H157.026V36.7811H154.767V40.7991H157.024V45.9485C157.024 49.886 159.339 51.8058 163.312 51.8058C164.625 51.8561 165.927 51.554 167.084 50.9308L165.741 47.1683C165.247 47.4874 164.671 47.6544 164.084 47.6486" fill="#D62287"/>
<path d="M179.261 35.9603C177.553 35.9075 175.888 36.5041 174.602 37.6298V30.5554H169.172V51.5511H174.602V44.1372C174.602 41.5909 175.946 40.5156 177.689 40.5156C179.264 40.5156 180.233 41.4492 180.233 43.6568V51.5511H185.663V42.7792C185.663 38.0253 182.89 35.9603 179.261 35.9603Z" fill="#D62287"/>
<path d="M193.639 36.2156H188.209V51.5517H193.639V36.2156Z" fill="#D62287"/>
<path d="M33.2697 7.68504C22.9123 14.8364 21.4248 21.0944 20.5761 27.3524C19.7273 33.6105 23.9755 46.6025 37.307 46.6025C50.6385 46.6025 55.4755 36.4 55.5254 29.6624C55.5753 22.9249 52.7761 15.2433 47.24 11.0993L40.6005 15.0998C49.3111 21.5267 50.0549 36.2748 40.7755 38.1675C31.4961 40.0601 23.2842 31.1561 30.7908 21.2694C38.2975 11.3828 43.8284 8.62479 50.5659 7.61942C57.7409 6.55191 70.0294 12.011 68.1166 27.1556C66.2039 42.3001 56.9245 51.0685 51.8959 56.1172C46.8672 61.166 34.899 66.3547 23.4968 55.5564C12.0947 44.758 7.56219 34.4513 7.70044 23.5558C7.83869 12.6603 20.3066 6.05579 29.726 7.66754C29.726 7.66754 33.7632 4.51229 37.587 1.77791C14.7879 -5.37435 1.05043 10.6119 0.126429 22.0412C-0.797572 33.4705 3.45143 41.8836 9.33319 51.2164C15.2149 60.5491 27.7458 70 37.6614 70C47.5769 70 56.4993 62.6377 63.6489 54.9955C70.7985 47.3532 83.9734 21.5048 69.4414 8.52592C55.4545 -3.96735 43.628 0.532782 33.2697 7.68504Z" fill="#D62287"/>
</svg>
