<svg width="140" height="50" viewBox="0 0 140 50" fill="none" xmlns="http://www.w3.org/2000/svg">
<path d="M137.632 20.333C136.203 20.333 135.264 21.2224 135.264 22.3743C135.264 23.5261 136.202 24.4161 137.632 24.4161C139.063 24.4161 140 23.5268 140 22.3143C140 21.1624 139.062 20.333 137.632 20.333Z" fill="#D32986"/>
<path d="M62.4185 42.123H61.9954V46.0849H62.4185V42.123Z" fill="#1D1D1B"/>
<path d="M66.4023 44.3585V46.0847H65.9954V44.3972C66.0134 44.2723 66.0029 44.1449 65.9646 44.0246C65.9262 43.9043 65.8611 43.7942 65.7741 43.7027C65.6871 43.6112 65.5805 43.5406 65.4623 43.4963C65.3441 43.4519 65.2174 43.4349 65.0917 43.4466C64.9486 43.4355 64.8049 43.4559 64.6706 43.5063C64.5363 43.5568 64.4147 43.6361 64.3144 43.7387C64.2141 43.8412 64.1375 43.9646 64.0901 44.1C64.0426 44.2353 64.0255 44.3795 64.0398 44.5222V46.0847H63.6335V43.1047H64.0223V43.6541C64.1452 43.466 64.3158 43.3139 64.5168 43.2135C64.7178 43.113 64.9418 43.0677 65.166 43.0822C65.3352 43.0679 65.5055 43.0913 65.6645 43.1508C65.8236 43.2103 65.9674 43.3044 66.0856 43.4263C66.2038 43.5482 66.2934 43.6948 66.348 43.8556C66.4025 44.0164 66.4206 44.1873 66.401 44.356" fill="#1D1D1B"/>
<path d="M69.9747 43.1084L68.6372 46.0853H68.2197L66.8872 43.1084H67.3103L68.4353 45.6447L69.5735 43.1084H69.9747Z" fill="#1D1D1B"/>
<path d="M73.0778 44.7216H70.5622C70.5715 44.8675 70.6096 45.0101 70.6742 45.1411C70.7389 45.2722 70.8288 45.3893 70.9388 45.4855C71.0488 45.5817 71.1767 45.6553 71.3152 45.7019C71.4537 45.7486 71.6001 45.7674 71.7459 45.7573C71.9184 45.7629 72.0901 45.7309 72.249 45.6635C72.4079 45.596 72.5502 45.4947 72.6659 45.3666L72.8947 45.6266C72.6786 45.8503 72.4018 46.0059 72.0984 46.0742C71.7951 46.1425 71.4783 46.1205 71.1873 46.011C70.8962 45.9015 70.6435 45.7093 70.4604 45.458C70.2772 45.2067 70.1716 44.9073 70.1565 44.5966C70.1468 44.3992 70.1778 44.2018 70.2477 44.0168C70.3175 43.8318 70.4247 43.6632 70.5625 43.5214C70.7004 43.3797 70.8659 43.2678 71.0488 43.1928C71.2318 43.1178 71.4282 43.0812 71.6259 43.0854C71.8233 43.0805 72.0195 43.1167 72.2021 43.1917C72.3848 43.2666 72.5499 43.3786 72.6869 43.5207C72.824 43.6628 72.9301 43.8318 72.9985 44.017C73.0668 44.2022 73.0959 44.3996 73.084 44.5966C73.084 44.6304 73.0784 44.676 73.0784 44.7216H73.0778ZM70.5628 44.4216H72.6953C72.6747 44.153 72.5534 43.9019 72.3557 43.7188C72.158 43.5357 71.8985 43.434 71.629 43.434C71.3596 43.434 71.1 43.5357 70.9023 43.7188C70.7046 43.9019 70.5834 44.153 70.5628 44.4216Z" fill="#1D1D1B"/>
<path d="M73.4941 45.7458L73.6772 45.4289C73.9899 45.6491 74.3636 45.7658 74.746 45.7627C75.3178 45.7627 75.5522 45.5702 75.5522 45.2758C75.5522 44.5002 73.6028 45.1114 73.6028 43.9346C73.6028 43.4477 74.026 43.0852 74.7903 43.0852C75.1631 43.0796 75.5304 43.1755 75.8528 43.3627L75.6753 43.6852C75.4126 43.5124 75.1035 43.4234 74.7891 43.4302C74.246 43.4302 74.006 43.6396 74.006 43.9227C74.006 44.7264 75.9553 44.1208 75.9553 45.2646C75.9553 45.7796 75.4978 46.1133 74.7147 46.1133C74.2777 46.126 73.8484 45.9968 73.491 45.7452" fill="#1D1D1B"/>
<path d="M78.2903 45.9033C78.1102 46.0458 77.8855 46.12 77.6559 46.1127C77.5383 46.1264 77.419 46.1136 77.3069 46.0752C77.1949 46.0368 77.0928 45.9737 77.0084 45.8907C76.9239 45.8076 76.8591 45.7067 76.8187 45.5953C76.7784 45.4839 76.7636 45.3649 76.7753 45.247V43.447H76.2378V43.1077H76.7753V42.457H77.1809V43.1077H78.0959V43.447H77.1809V45.2245C77.1709 45.2963 77.1772 45.3694 77.1994 45.4383C77.2217 45.5073 77.2593 45.5703 77.3094 45.6226C77.3595 45.675 77.4208 45.7153 77.4887 45.7405C77.5567 45.7657 77.6294 45.7752 77.7015 45.7683C77.8639 45.7725 78.0223 45.7182 78.1478 45.6152L78.2903 45.9033Z" fill="#1D1D1B"/>
<path d="M81.0335 42.123H80.6104V46.0849H81.0335V42.123Z" fill="#1D1D1B"/>
<path d="M85.0172 44.3586V46.0848H84.6116V44.3973C84.6296 44.2723 84.6191 44.1449 84.5807 44.0246C84.5424 43.9043 84.4773 43.7943 84.3903 43.7028C84.3033 43.6113 84.1967 43.5407 84.0785 43.4963C83.9603 43.452 83.8335 43.435 83.7078 43.4467C83.5648 43.4355 83.4211 43.4559 83.2868 43.5064C83.1525 43.5568 83.0309 43.6361 82.9306 43.7387C82.8303 43.8413 82.7537 43.9646 82.7062 44.1C82.6588 44.2354 82.6416 44.3796 82.6559 44.5223V46.0848H82.2522V43.1048H82.641V43.6542C82.7638 43.4661 82.9345 43.314 83.1355 43.2135C83.3364 43.113 83.5605 43.0678 83.7847 43.0823C83.9539 43.0678 84.1242 43.0911 84.2833 43.1506C84.4424 43.2101 84.5863 43.3042 84.7045 43.4261C84.8227 43.548 84.9123 43.6947 84.9669 43.8556C85.0214 44.0164 85.0394 44.1874 85.0197 44.3561" fill="#1D1D1B"/>
<path d="M93.1973 42.123L91.8479 46.0849H91.4016L90.2298 42.7055L89.0523 46.0849H88.6148L87.2654 42.123H87.6998L88.8548 45.5305L90.0491 42.123H90.4435L91.621 45.5474L92.7935 42.123H93.1973Z" fill="#1D1D1B"/>
<path d="M96.7343 44.3585V46.0848H96.3287V44.3973C96.3468 44.2723 96.3362 44.1449 96.2979 44.0246C96.2596 43.9043 96.1944 43.7942 96.1074 43.7027C96.0204 43.6112 95.9138 43.5406 95.7956 43.4963C95.6774 43.4519 95.5507 43.4349 95.425 43.4466C95.2819 43.4355 95.1382 43.4559 95.0039 43.5063C94.8696 43.5568 94.748 43.6361 94.6477 43.7387C94.5474 43.8413 94.4708 43.9646 94.4234 44.1C94.3759 44.2354 94.3588 44.3795 94.3731 44.5223V46.0848H93.9644V41.8848H94.37V43.6291C94.4951 43.4496 94.6643 43.3053 94.8613 43.2101C95.0584 43.1149 95.2766 43.0719 95.495 43.0854C95.6642 43.071 95.8344 43.0944 95.9935 43.1539C96.1525 43.2134 96.2963 43.3075 96.4145 43.4294C96.5327 43.5513 96.6223 43.698 96.6769 43.8588C96.7314 44.0196 96.7496 44.1905 96.73 44.3591" fill="#1D1D1B"/>
<path d="M100.106 44.24V46.085H99.7175V45.6207C99.6044 45.7874 99.449 45.9209 99.2672 46.0074C99.0854 46.094 98.8837 46.1305 98.6831 46.1132C98.0025 46.1132 97.585 45.7619 97.585 45.2475C97.585 44.7888 97.8825 44.4038 98.7456 44.4038H99.7006V44.2225C99.7006 43.7132 99.4087 43.4357 98.8487 43.4357C98.4843 43.4308 98.13 43.5553 97.8487 43.7869L97.6656 43.4863C98.0152 43.2157 98.4474 43.0738 98.8893 43.0844C99.0494 43.06 99.2129 43.0725 99.3674 43.1209C99.5219 43.1694 99.6633 43.2525 99.7808 43.3639C99.8982 43.4754 99.9887 43.6122 100.045 43.7639C100.102 43.9156 100.123 44.0783 100.107 44.2394L100.106 44.24ZM99.7012 45.19V44.7032H98.7575C98.1743 44.7032 97.9856 44.9294 97.9856 45.235C97.9856 45.58 98.2662 45.7975 98.7462 45.7975C98.9489 45.8103 99.1505 45.7585 99.322 45.6498C99.4936 45.541 99.6263 45.3807 99.7012 45.1919" fill="#1D1D1B"/>
<path d="M102.792 45.9033C102.612 46.0458 102.387 46.12 102.158 46.1127C102.04 46.1264 101.921 46.1136 101.809 46.0752C101.697 46.0368 101.595 45.9737 101.51 45.8907C101.426 45.8076 101.361 45.7067 101.321 45.5953C101.28 45.4839 101.266 45.3649 101.277 45.247V43.447H100.74V43.1077H101.277V42.457H101.683V43.1077H102.598V43.447H101.683V45.2245C101.673 45.2963 101.679 45.3694 101.701 45.4383C101.724 45.5073 101.761 45.5703 101.811 45.6226C101.861 45.675 101.923 45.7153 101.991 45.7405C102.059 45.7657 102.131 45.7752 102.204 45.7683C102.366 45.7725 102.524 45.7182 102.65 45.6152L102.792 45.9033Z" fill="#1D1D1B"/>
<path d="M103.877 42.1626C103.871 42.2735 103.846 42.3826 103.803 42.4851L103.557 43.2664H103.283L103.484 42.4539C103.421 42.4365 103.366 42.3986 103.328 42.3462C103.289 42.2939 103.269 42.2301 103.272 42.1651C103.27 42.1248 103.277 42.0846 103.292 42.0469C103.306 42.0093 103.328 41.9751 103.357 41.9464C103.385 41.9178 103.419 41.8953 103.457 41.8803C103.494 41.8654 103.534 41.8583 103.575 41.8595C103.615 41.8587 103.655 41.8661 103.692 41.8812C103.73 41.8964 103.763 41.9189 103.792 41.9475C103.82 41.976 103.842 42.01 103.857 42.0475C103.872 42.0849 103.879 42.1249 103.878 42.1651" fill="#1D1D1B"/>
<path d="M104.232 45.7458L104.415 45.429C104.728 45.6492 105.102 45.7659 105.484 45.7627C106.056 45.7627 106.29 45.5702 106.29 45.2758C106.29 44.5002 104.341 45.1114 104.341 43.9346C104.341 43.4477 104.764 43.0852 105.529 43.0852C105.901 43.0795 106.269 43.1755 106.591 43.3627L106.414 43.6852C106.151 43.5124 105.842 43.4234 105.528 43.4302C104.985 43.4302 104.745 43.6396 104.745 43.9227C104.745 44.7264 106.694 44.1208 106.694 45.2646C106.694 45.7796 106.237 46.1133 105.454 46.1133C105.017 46.126 104.588 45.9968 104.23 45.7452" fill="#1D1D1B"/>
<path d="M109.794 42.123H109.371V46.0849H109.794V42.123Z" fill="#1D1D1B"/>
<path d="M115.973 44.3588V46.0851H115.567V44.3976C115.567 43.7695 115.247 43.447 114.704 43.447C114.564 43.4392 114.424 43.4624 114.294 43.5147C114.163 43.567 114.046 43.6473 113.95 43.7499C113.854 43.8524 113.782 43.9747 113.738 44.1082C113.695 44.2418 113.681 44.3832 113.698 44.5226V46.0851H113.292V44.3976C113.292 43.7695 112.971 43.447 112.423 43.447C112.283 43.4398 112.143 43.4633 112.013 43.5158C111.883 43.5683 111.766 43.6486 111.67 43.7511C111.574 43.8535 111.502 43.9756 111.458 44.1088C111.414 44.2421 111.4 44.3833 111.417 44.5226V46.0851H111.01V43.1051H111.4V43.6482C111.516 43.4638 111.68 43.314 111.874 43.2144C112.068 43.1148 112.285 43.0691 112.503 43.082C112.724 43.0646 112.945 43.1156 113.136 43.228C113.328 43.3405 113.48 43.509 113.572 43.7107C113.695 43.5086 113.87 43.3435 114.079 43.2328C114.288 43.1222 114.523 43.07 114.759 43.082C114.927 43.0681 115.096 43.092 115.254 43.1521C115.412 43.2121 115.554 43.3067 115.67 43.4288C115.786 43.551 115.874 43.6977 115.926 43.8581C115.978 44.0184 115.994 44.1885 115.972 44.3557" fill="#1D1D1B"/>
<path d="M120.122 44.5965C120.131 44.7968 120.099 44.9969 120.027 45.1842C119.956 45.3714 119.846 45.5417 119.705 45.6843C119.564 45.8269 119.395 45.9386 119.208 46.0125C119.022 46.0864 118.822 46.1207 118.622 46.1134C118.397 46.1213 118.173 46.0713 117.973 45.9682C117.773 45.8651 117.602 45.7124 117.478 45.5246V47.1828H117.072V43.1071H117.461V43.6959C117.584 43.501 117.756 43.3419 117.959 43.2345C118.163 43.1271 118.391 43.0752 118.622 43.084C118.822 43.0766 119.021 43.1106 119.207 43.1841C119.393 43.2576 119.562 43.3688 119.703 43.5108C119.844 43.6528 119.954 43.8225 120.026 44.0092C120.098 44.1958 120.131 44.3954 120.122 44.5953V44.5965ZM119.716 44.5953C119.708 44.3753 119.636 44.1625 119.508 43.9834C119.38 43.8042 119.203 43.6666 118.997 43.5878C118.792 43.509 118.568 43.4923 118.353 43.54C118.138 43.5877 117.942 43.6975 117.789 43.8558C117.636 44.0141 117.533 44.214 117.493 44.4304C117.453 44.6468 117.477 44.8702 117.563 45.0728C117.649 45.2753 117.793 45.4481 117.977 45.5696C118.16 45.6911 118.375 45.7559 118.595 45.7559C118.747 45.7588 118.897 45.7304 119.037 45.6726C119.177 45.6148 119.303 45.5287 119.409 45.4198C119.514 45.3109 119.595 45.1814 119.648 45.0396C119.701 44.8977 119.724 44.7464 119.716 44.5953Z" fill="#1D1D1B"/>
<path d="M120.875 44.5966C120.872 44.2937 120.96 43.9969 121.126 43.7438C121.293 43.4908 121.53 43.2928 121.809 43.175C122.088 43.0573 122.396 43.025 122.694 43.0823C122.991 43.1397 123.265 43.284 123.48 43.4971C123.695 43.7102 123.842 43.9824 123.903 44.2792C123.963 44.576 123.934 44.884 123.819 45.1642C123.704 45.4445 123.509 45.6843 123.257 45.8533C123.006 46.0223 122.71 46.1128 122.407 46.1134C122.205 46.1219 122.003 46.0885 121.815 46.0155C121.626 45.9424 121.454 45.8313 121.31 45.6889C121.167 45.5466 121.054 45.3761 120.979 45.1882C120.904 45.0002 120.868 44.7988 120.875 44.5966V44.5966ZM123.522 44.5966C123.513 44.3771 123.441 44.1649 123.313 43.9865C123.185 43.808 123.007 43.6711 122.802 43.593C122.597 43.5148 122.373 43.4987 122.159 43.5468C121.944 43.5949 121.749 43.705 121.597 43.8634C121.445 44.0217 121.343 44.2214 121.303 44.4374C121.264 44.6535 121.289 44.8763 121.375 45.0783C121.461 45.2802 121.605 45.4522 121.789 45.573C121.972 45.6937 122.187 45.7578 122.407 45.7572C122.558 45.7609 122.708 45.733 122.848 45.6754C122.988 45.6178 123.115 45.5316 123.22 45.4225C123.325 45.3133 123.406 45.1835 123.458 45.0413C123.51 44.8991 123.531 44.7476 123.522 44.5966Z" fill="#1D1D1B"/>
<path d="M126.505 43.0855V43.4761C126.47 43.4761 126.437 43.4705 126.408 43.4705C126.265 43.4626 126.123 43.4863 125.991 43.54C125.859 43.5937 125.74 43.6759 125.643 43.7809C125.546 43.8858 125.474 44.0109 125.431 44.1471C125.389 44.2833 125.377 44.4272 125.396 44.5686V46.0855H124.99V43.1086H125.379V43.6917C125.484 43.4897 125.648 43.3239 125.849 43.2159C126.049 43.1079 126.278 43.0627 126.504 43.0861" fill="#1D1D1B"/>
<path d="M128.752 45.9033C128.572 46.0458 128.347 46.12 128.117 46.1127C128 46.1264 127.88 46.1136 127.768 46.0752C127.656 46.0368 127.554 45.9737 127.47 45.8907C127.385 45.8076 127.32 45.7067 127.28 45.5953C127.24 45.4839 127.225 45.3649 127.237 45.247V43.447H126.699V43.1077H127.237V42.457H127.642V43.1077H128.557V43.447H127.642V45.2245C127.632 45.2963 127.638 45.3694 127.66 45.4383C127.682 45.5073 127.72 45.5703 127.77 45.6226C127.82 45.675 127.882 45.7153 127.95 45.7405C128.017 45.7657 128.09 45.7752 128.162 45.7683C128.325 45.7725 128.483 45.7182 128.609 45.6152L128.752 45.9033Z" fill="#1D1D1B"/>
<path d="M131.758 44.24V46.085H131.369V45.6207C131.256 45.7874 131.101 45.9209 130.919 46.0074C130.737 46.094 130.536 46.1305 130.335 46.1132C129.654 46.1132 129.237 45.7619 129.237 45.2475C129.237 44.7888 129.534 44.4038 130.397 44.4038H131.352V44.2225C131.352 43.7132 131.061 43.4357 130.501 43.4357C130.136 43.4308 129.782 43.5553 129.501 43.7869L129.317 43.4863C129.667 43.2157 130.099 43.0738 130.541 43.0844C130.701 43.06 130.865 43.0725 131.019 43.1209C131.174 43.1694 131.315 43.2525 131.433 43.3639C131.55 43.4754 131.641 43.6122 131.697 43.7639C131.754 43.9156 131.775 44.0783 131.759 44.2394L131.758 44.24ZM131.353 45.19V44.7032H130.409C129.826 44.7032 129.637 44.9294 129.637 45.235C129.637 45.58 129.918 45.7975 130.398 45.7975C130.601 45.8103 130.802 45.7585 130.974 45.6498C131.145 45.541 131.278 45.3807 131.353 45.1919" fill="#1D1D1B"/>
<path d="M135.627 44.3585V46.0847H135.222V44.3972C135.24 44.2723 135.229 44.1449 135.191 44.0246C135.152 43.9043 135.087 43.7942 135 43.7027C134.913 43.6112 134.807 43.5406 134.689 43.4963C134.57 43.4519 134.444 43.4349 134.318 43.4466C134.175 43.4355 134.031 43.4559 133.897 43.5063C133.762 43.5568 133.641 43.6361 133.541 43.7387C133.44 43.8412 133.364 43.9646 133.316 44.1C133.269 44.2353 133.252 44.3795 133.266 44.5222V46.0847H132.86V43.1047H133.249V43.6541C133.372 43.4661 133.542 43.314 133.743 43.2135C133.944 43.1131 134.168 43.0677 134.392 43.0822C134.561 43.0679 134.732 43.0913 134.891 43.1508C135.05 43.2103 135.194 43.3044 135.312 43.4263C135.43 43.5482 135.52 43.6948 135.574 43.8556C135.629 44.0164 135.647 44.1873 135.627 44.356" fill="#1D1D1B"/>
<path d="M138.313 45.9033C138.133 46.0458 137.909 46.12 137.679 46.1127C137.561 46.1264 137.442 46.1136 137.33 46.0752C137.218 46.0368 137.116 45.9737 137.032 45.8907C136.947 45.8076 136.882 45.7067 136.842 45.5953C136.802 45.4839 136.787 45.3649 136.798 45.247V43.447H136.261V43.1077H136.798V42.457H137.204V43.1077H138.119V43.447H137.204V45.2245C137.194 45.2963 137.2 45.3694 137.223 45.4383C137.245 45.5073 137.282 45.5703 137.333 45.6226C137.383 45.675 137.444 45.7153 137.512 45.7405C137.58 45.7657 137.653 45.7752 137.725 45.7683C137.887 45.7725 138.045 45.7182 138.171 45.6152L138.313 45.9033Z" fill="#1D1D1B"/>
<path d="M67.1729 8.232H61.661V2.91949H57.6191V17.0645H61.661V11.547H67.1729V17.0645H71.2154V2.91699H67.1729V8.232Z" fill="#D32986"/>
<path d="M79.686 5.92773C76.1954 5.92773 73.6023 8.27274 73.6023 11.5665C73.6023 14.8409 76.1542 17.2459 80.0942 17.2459C82.1973 17.2459 83.7486 16.639 84.8098 15.4671L82.7686 13.3652C82.0771 14.007 81.1595 14.3486 80.2167 14.3152C78.7873 14.3152 77.8279 13.6684 77.5011 12.5571H85.5442C85.5648 12.254 85.6067 11.8902 85.6067 11.6071C85.6067 7.98961 82.9529 5.92773 79.6867 5.92773H79.686ZM77.4398 10.5359C77.5391 10.0075 77.8199 9.5305 78.2337 9.18727C78.6475 8.84404 79.1682 8.65619 79.7057 8.65619C80.2433 8.65619 80.764 8.84404 81.1778 9.18727C81.5915 9.5305 81.8724 10.0075 81.9717 10.5359H77.4398Z" fill="#D32986"/>
<path d="M92.526 5.92815C90.814 5.89865 89.1266 6.33898 87.6473 7.20128L88.9535 9.80878C89.831 9.18913 90.8793 8.85718 91.9535 8.85878C93.4848 8.85878 94.2404 9.48378 94.3016 10.5969H92.0966C88.6672 10.5969 87.1772 11.8469 87.1772 13.8713C87.1772 15.7713 88.6473 17.2463 91.3023 17.2463C92.9154 17.2463 94.0179 16.7007 94.5685 15.6494V17.0644H98.1823V10.9813C98.1823 7.50503 96.1198 5.92815 92.5273 5.92815H92.526ZM94.3035 13.5475C94.1655 13.9395 93.9036 14.2758 93.5574 14.5055C93.2112 14.7352 92.7995 14.8459 92.3848 14.8207C91.466 14.8207 90.9354 14.3557 90.9354 13.7088C90.9354 13.0419 91.3848 12.5969 92.6298 12.5969H94.3035V13.5475Z" fill="#D32986"/>
<path d="M105.326 2.06836H101.447V17.0653H105.326V2.06836Z" fill="#D32986"/>
<path d="M114.96 14.2757C114.798 14.2836 114.636 14.2559 114.485 14.1947C114.334 14.1334 114.199 14.04 114.088 13.921C113.977 13.8019 113.894 13.6602 113.844 13.5055C113.793 13.3509 113.777 13.1871 113.797 13.0257V9.38505H116.328V6.51442H113.797V3.66504H109.918V6.51442H108.305V9.38442H109.918V13.0626C109.918 15.8719 111.572 17.2463 114.409 17.2463C115.347 17.2823 116.277 17.0665 117.104 16.6213L116.144 13.9338C115.792 14.1621 115.38 14.2817 114.96 14.2776" fill="#D32986"/>
<path d="M126.617 5.92801C125.397 5.8903 124.208 6.31642 123.289 7.12051V2.06738H119.41V17.0643H123.289V11.7693C123.289 9.95052 124.249 9.18177 125.494 9.18177C126.619 9.18177 127.311 9.84864 127.311 11.4249V17.0637H131.19V10.7986C131.19 7.40302 129.209 5.92739 126.617 5.92739" fill="#D32986"/>
<path d="M136.374 4.89758C137.803 4.89758 138.742 4.00883 138.742 2.79571C138.742 1.6432 137.804 0.814453 136.374 0.814453C134.943 0.814453 134.005 1.70383 134.005 2.85633C134.005 4.00883 134.943 4.89758 136.374 4.89758Z" fill="#D32986"/>
<path d="M138.313 6.11035H134.434V17.0647H138.313V6.11035Z" fill="#D32986"/>
<path d="M76.1859 22.6748L73.3516 31.7898L70.6328 22.6748H67.124L64.2703 31.7092L61.5515 22.6748H57.6184L61.9934 36.8229H66.0809L68.7803 28.2129L71.3634 36.8229H75.4528L79.8278 22.6748H76.1859Z" fill="#D32986"/>
<path d="M85.0935 25.6862C81.6023 25.6862 79.0098 28.0306 79.0098 31.3249C79.0098 34.5993 81.5616 37.0043 85.5016 37.0043C87.6048 37.0043 89.1554 36.3981 90.2173 35.2256L88.176 33.1237C87.4846 33.7655 86.5669 34.107 85.6242 34.0731C84.1948 34.0731 83.2354 33.4262 82.9085 32.3149H90.9523C90.9729 32.0118 91.0148 31.6481 91.0148 31.3649C91.0148 27.7474 88.361 25.6855 85.0948 25.6855L85.0935 25.6862ZM82.8491 30.2937C82.9485 29.7653 83.2293 29.2883 83.643 28.9451C84.0568 28.6019 84.5775 28.414 85.1151 28.414C85.6527 28.414 86.1734 28.6019 86.5871 28.9451C87.0009 29.2883 87.2817 29.7653 87.381 30.2937H82.8491Z" fill="#D32986"/>
<path d="M97.2199 25.686C95.5078 25.6565 93.8204 26.0968 92.3411 26.9591L93.6474 29.5666C94.5249 28.9469 95.5731 28.615 96.6473 28.6166C98.1786 28.6166 98.9336 29.2416 98.9949 30.3547H96.7905C93.3611 30.3547 91.8711 31.6047 91.8711 33.6291C91.8711 35.5291 93.3405 37.0041 95.9961 37.0041C97.6086 37.0041 98.7117 36.4585 99.2624 35.4072V36.8222H102.875V30.7385C102.875 27.2622 100.813 25.686 97.2211 25.686H97.2199ZM98.9955 33.3047C98.8576 33.6967 98.5957 34.0331 98.2494 34.2628C97.9032 34.4926 97.4915 34.6032 97.0767 34.5778C96.158 34.5778 95.6274 34.1128 95.6274 33.466C95.6274 32.7991 96.0761 32.3541 97.3211 32.3541H98.9955V33.3047Z" fill="#D32986"/>
<path d="M108.794 21.8252H104.915V36.8221H108.794V21.8252Z" fill="#D32986"/>
<path d="M117.204 34.0335C117.041 34.0414 116.879 34.0137 116.728 33.9525C116.578 33.8912 116.442 33.7978 116.331 33.6788C116.221 33.5598 116.137 33.418 116.087 33.2633C116.036 33.1087 116.02 32.9449 116.04 32.7835V29.1429H118.571V26.2722H116.04V23.4229H112.161V26.2722H110.547V29.1422H112.16V32.8204C112.16 35.6329 113.814 37.0041 116.651 37.0041C117.589 37.0401 118.519 36.8243 119.345 36.3791L118.386 33.6916C118.034 33.9196 117.622 34.0389 117.202 34.0347" fill="#D32986"/>
<path d="M128.044 25.6858C126.824 25.6481 125.635 26.0742 124.716 26.8783V21.8252H120.837V36.8221H124.716V31.5265C124.716 29.7077 125.676 28.9396 126.921 28.9396C128.046 28.9396 128.738 29.6065 128.738 31.1833V36.8221H132.617V30.5565C132.617 27.1608 130.636 25.6858 128.044 25.6858Z" fill="#D32986"/>
<path d="M138.314 25.8682H134.435V36.8226H138.314V25.8682Z" fill="#D32986"/>
<path d="M23.7641 5.48931C16.366 10.5974 15.3035 15.0675 14.6972 19.5375C14.0909 24.0075 17.1253 33.2875 26.6478 33.2875C36.1704 33.2875 39.6254 26 39.661 21.1875C39.6966 16.375 37.6972 10.8881 33.7428 7.92807L29.0003 10.7856C35.2222 15.3762 35.7535 25.9106 29.1253 27.2625C22.4972 28.6143 16.6316 22.2543 21.9935 15.1925C27.3553 8.13057 31.306 6.16057 36.1185 5.44244C41.2435 4.67994 50.021 8.57932 48.6547 19.3968C47.2885 30.2143 40.6604 36.4775 37.0685 40.0837C33.4766 43.69 24.9278 47.3962 16.7835 39.6831C8.63907 31.97 5.40156 24.6081 5.50031 16.8256C5.59906 9.04307 14.5047 4.32556 21.2328 5.47681C21.2328 5.47681 24.1166 3.22306 26.8478 1.26993C10.5628 -3.83882 0.750307 7.57994 0.0903063 15.7437C-0.569695 23.9075 2.46531 29.9168 6.66657 36.5831C10.8678 43.2494 19.8185 50 26.901 50C33.9835 50 40.3566 44.7412 45.4635 39.2825C50.5704 33.8237 59.981 15.3606 49.601 6.08994C39.6104 -2.83382 31.1628 0.380558 23.7641 5.48931Z" fill="#D32986"/>
</svg>
