<svg width="63" height="38" viewBox="0 0 63 38" fill="none" xmlns="http://www.w3.org/2000/svg">
<path d="M11.79 3.27441C11.79 5.38379 11.7197 7.28223 11.5791 8.96973C11.4561 10.6396 11.2539 12.1514 10.9727 13.5049C10.709 14.8408 10.3574 16.0273 9.91797 17.0645C9.47852 18.1016 8.95117 19.0244 8.33594 19.833C8.40625 20.1143 8.51172 20.5977 8.65234 21.2832C8.81055 21.9512 8.99512 22.7422 9.20605 23.6562C9.41699 24.5527 9.64551 25.5371 9.8916 26.6094C10.1377 27.6641 10.3838 28.7275 10.6299 29.7998C10.876 30.8545 11.1133 31.874 11.3418 32.8584C11.5703 33.8428 11.7725 34.7217 11.9482 35.4951C12.124 36.251 12.3174 37.0859 12.5283 38H10.4189L6.75391 21.5205C6.10352 22.083 5.3916 22.5928 4.61816 23.0498C3.84473 23.4893 2.99219 23.9023 2.06055 24.2891V38H0.109375V8.94336C0.109375 8.36328 0.118164 7.76562 0.135742 7.15039C0.170898 6.53516 0.25 5.94629 0.373047 5.38379C0.496094 4.82129 0.698242 4.29395 0.979492 3.80176C1.26074 3.29199 1.64746 2.85254 2.13965 2.4834C2.64941 2.09668 3.29102 1.79785 4.06445 1.58691C4.85547 1.37598 5.82227 1.27051 6.96484 1.27051H11.79V3.27441ZM2.06055 22.127C2.55273 21.916 3.08887 21.6699 3.66895 21.3887C4.24902 21.0898 4.82031 20.6943 5.38281 20.2021C5.96289 19.71 6.5166 19.0859 7.04395 18.3301C7.58887 17.5566 8.06348 16.5986 8.46777 15.4561C8.87207 14.2959 9.19727 12.9072 9.44336 11.29C9.68945 9.65527 9.8125 7.73047 9.8125 5.51562V3.03711H7.49219C6.56055 3.03711 5.75195 3.11621 5.06641 3.27441C4.38086 3.43262 3.80957 3.70508 3.35254 4.0918C2.91309 4.46094 2.58789 4.9707 2.37695 5.62109C2.16602 6.27148 2.06055 7.08887 2.06055 8.07324V22.127ZM22.0047 25.502C21.618 25.8887 21.2488 26.3633 20.8973 26.9258C20.5457 27.4883 20.2293 28.1562 19.948 28.9297C19.6844 29.7031 19.4734 30.5908 19.3152 31.5928C19.157 32.5947 19.0779 33.7285 19.0779 34.9941V38H17.1004V34.9414C17.1004 33.5703 17.1883 32.3574 17.3641 31.3027C17.5574 30.248 17.8035 29.3164 18.1023 28.5078C18.4188 27.6816 18.7791 26.9521 19.1834 26.3193C19.5877 25.6865 20.0008 25.1152 20.4227 24.6055C20.0008 24.0957 19.5877 23.5244 19.1834 22.8916C18.7791 22.2588 18.4188 21.5381 18.1023 20.7295C17.8035 19.9033 17.5574 18.9629 17.3641 17.9082C17.1883 16.8535 17.1004 15.6406 17.1004 14.2695V11.1846H19.0779V14.2168C19.0779 15.4824 19.157 16.625 19.3152 17.6445C19.4734 18.6465 19.6844 19.5342 19.948 20.3076C20.2293 21.0811 20.5457 21.749 20.8973 22.3115C21.2488 22.874 21.618 23.3486 22.0047 23.7354C22.3914 23.3486 22.7605 22.874 23.1121 22.3115C23.4637 21.749 23.7713 21.0811 24.035 20.3076C24.3162 19.5342 24.5359 18.6465 24.6941 17.6445C24.8523 16.625 24.9314 15.4824 24.9314 14.2168V11.1846H26.909V14.2695C26.909 15.6406 26.8123 16.8535 26.6189 17.9082C26.4432 18.9629 26.1971 19.9033 25.8807 20.7295C25.5818 21.5381 25.2303 22.2588 24.826 22.8916C24.4217 23.5244 24.0086 24.0957 23.5867 24.6055C24.0086 25.1152 24.4217 25.6865 24.826 26.3193C25.2303 26.9521 25.5818 27.6816 25.8807 28.5078C26.1971 29.3164 26.4432 30.248 26.6189 31.3027C26.8123 32.3574 26.909 33.5703 26.909 34.9414V38H24.9314V34.9941C24.9314 33.7285 24.8523 32.5947 24.6941 31.5928C24.5359 30.5908 24.3162 29.7031 24.035 28.9297C23.7713 28.1562 23.4637 27.4883 23.1121 26.9258C22.7605 26.3633 22.3914 25.8887 22.0047 25.502ZM44.8756 38H42.898V18.9893H35.1725V38H33.1949V1.27051H35.1725V17.2227H42.898V1.27051H44.8756V38ZM59.6781 2.50977C58.7992 2.50977 58.017 2.58887 57.3314 2.74707C56.6459 2.90527 56.057 3.17773 55.5648 3.56445C55.0727 3.95117 54.6947 4.46973 54.4311 5.12012C54.185 5.77051 54.0619 6.5791 54.0619 7.5459V36.2334H62.473V38H52.0844V8.41602C52.0844 7.83594 52.0932 7.24707 52.1107 6.64941C52.1459 6.03418 52.2338 5.44531 52.3744 4.88281C52.515 4.30273 52.7348 3.7666 53.0336 3.27441C53.3324 2.76465 53.7631 2.3252 54.3256 1.95605C54.8881 1.58691 55.6 1.29688 56.4613 1.08594C57.3402 0.857422 58.4125 0.743164 59.6781 0.743164V2.50977Z" fill="#D32986"/>
<path d="M11.5791 8.96973L9.58601 8.80364L9.58521 8.81319L9.58451 8.82276L11.5791 8.96973ZM10.9727 13.5049L9.01448 13.098L9.01245 13.1078L9.01051 13.1176L10.9727 13.5049ZM8.33594 19.833L6.74428 18.622L6.16271 19.3863L6.39565 20.3181L8.33594 19.833ZM8.65234 21.2832L6.69314 21.6851L6.69921 21.7147L6.70618 21.7441L8.65234 21.2832ZM9.20605 23.6562L7.25725 24.106L7.25922 24.1143L9.20605 23.6562ZM9.8916 26.6094L7.94227 27.0568L7.94392 27.0638L9.8916 26.6094ZM10.6299 29.7998L8.68055 30.2472L8.6822 30.2543L10.6299 29.7998ZM11.3418 32.8584L13.29 32.4061L11.3418 32.8584ZM11.9482 35.4951L9.99795 35.9384L10.0002 35.9481L11.9482 35.4951ZM12.5283 38V40H15.0424L14.4771 37.5503L12.5283 38ZM10.4189 38L8.46664 38.4342L8.81488 40H10.4189V38ZM6.75391 21.5205L8.70621 21.0863L7.97904 17.8167L5.4456 20.0078L6.75391 21.5205ZM4.61816 23.0498L5.60618 24.7887L5.62098 24.7803L5.63562 24.7717L4.61816 23.0498ZM2.06055 24.2891L1.29379 22.4419L0.0605469 22.9538V24.2891H2.06055ZM2.06055 38V40H4.06055V38H2.06055ZM0.109375 38H-1.89062V40H0.109375V38ZM0.135742 7.15039L-1.861 7.03629L-1.86263 7.06476L-1.86344 7.09327L0.135742 7.15039ZM0.979492 3.80176L2.71598 4.79404L2.72341 4.78103L2.73065 4.76791L0.979492 3.80176ZM2.13965 2.4834L3.33967 4.08342L3.34842 4.07678L2.13965 2.4834ZM4.06445 1.58691L3.54912 -0.345587L3.53822 -0.342613L4.06445 1.58691ZM11.79 1.27051H13.79V-0.729492H11.79V1.27051ZM2.06055 22.127H0.0605469V25.16L2.84839 23.9652L2.06055 22.127ZM3.66895 21.3887L4.54149 23.1883L4.56331 23.1777L4.58486 23.1666L3.66895 21.3887ZM5.38281 20.2021L4.08886 18.6771L4.07725 18.687L4.0658 18.697L5.38281 20.2021ZM7.04395 18.3301L5.40896 17.1782L5.40369 17.1857L7.04395 18.3301ZM8.46777 15.4561L10.3532 16.1232L10.3564 16.1142L8.46777 15.4561ZM9.44336 11.29L11.4206 11.5909L11.4211 11.5878L9.44336 11.29ZM9.8125 3.03711H11.8125V1.03711H9.8125V3.03711ZM3.35254 4.0918L4.63893 5.62322L4.64442 5.61857L3.35254 4.0918ZM2.37695 5.62109L0.474508 5.00408L2.37695 5.62109ZM9.79004 3.27441C9.79004 5.34116 9.72108 7.18282 9.58601 8.80364L13.5722 9.13582C13.7184 7.38163 13.79 5.42642 13.79 3.27441H9.79004ZM9.58451 8.82276C9.46661 10.4229 9.27466 11.8459 9.01448 13.098L12.9308 13.9118C13.2331 12.4569 13.4455 10.8564 13.5737 9.1167L9.58451 8.82276ZM9.01051 13.1176C8.76813 14.3457 8.45257 15.3965 8.07647 16.2842L11.7595 17.8448C12.2623 16.6581 12.6498 15.336 12.9348 13.8921L9.01051 13.1176ZM8.07647 16.2842C7.69508 17.1842 7.24837 17.9594 6.74428 18.622L9.9276 21.0441C10.654 20.0894 11.262 19.0189 11.7595 17.8448L8.07647 16.2842ZM6.39565 20.3181C6.45454 20.5536 6.55251 20.9995 6.69314 21.6851L10.6115 20.8813C10.4709 20.1958 10.358 19.6749 10.2762 19.3479L6.39565 20.3181ZM6.70618 21.7441C6.86325 22.4073 7.04691 23.1944 7.25727 24.106L11.1548 23.2065C10.9433 22.29 10.7578 21.495 10.5985 20.8223L6.70618 21.7441ZM7.25922 24.1143C7.46918 25.0066 7.69686 25.9874 7.94228 27.0568L11.8409 26.162C11.5942 25.0868 11.3648 24.0988 11.1529 23.1982L7.25922 24.1143ZM7.94392 27.0638C8.18945 28.1161 8.435 29.1772 8.68056 30.2472L12.5792 29.3524C12.3326 28.2778 12.0859 27.212 11.8393 26.1549L7.94392 27.0638ZM8.6822 30.2543C8.92813 31.3083 9.16527 32.3271 9.3936 33.3107L13.29 32.4061C13.0613 31.421 12.8238 30.4007 12.5776 29.3453L8.6822 30.2543ZM9.3936 33.3107C9.6216 34.2928 9.82303 35.1686 9.99798 35.9384L13.8985 35.0519C13.7219 34.2747 13.519 33.3927 13.29 32.4061L9.3936 33.3107ZM10.0002 35.9481C10.1757 36.7027 10.3688 37.5365 10.5795 38.4497L14.4771 37.5503C14.266 36.6353 14.0723 35.7993 13.8963 35.0421L10.0002 35.9481ZM12.5283 36H10.4189V40H12.5283V36ZM12.3712 37.5658L8.70621 21.0863L4.80161 21.9547L8.46664 38.4342L12.3712 37.5658ZM5.4456 20.0078C4.88965 20.4886 4.27572 20.9291 3.60071 21.328L5.63562 24.7717C6.50748 24.2565 7.31738 23.6774 8.06221 23.0332L5.4456 20.0078ZM3.63015 21.3109C2.93688 21.7048 2.15938 22.0826 1.29379 22.4419L2.8273 26.1362C3.825 25.7221 4.75257 25.2737 5.60618 24.7887L3.63015 21.3109ZM0.0605469 24.2891V38H4.06055V24.2891H0.0605469ZM2.06055 36H0.109375V40H2.06055V36ZM2.10938 38V8.94336H-1.89062V38H2.10938ZM2.10938 8.94336C2.10938 8.38344 2.11786 7.80485 2.13493 7.20751L-1.86344 7.09327C-1.88153 7.7264 -1.89062 8.34313 -1.89062 8.94336H2.10938ZM2.13248 7.26449C2.16204 6.74735 2.22787 6.26364 2.32685 5.81118L-1.58075 4.9564C-1.72787 5.62894 -1.82024 6.32296 -1.861 7.03629L2.13248 7.26449ZM2.32685 5.81118C2.40722 5.44375 2.537 5.10725 2.71598 4.79404L-0.756994 2.80948C-1.14051 3.48064 -1.41504 4.19883 -1.58075 4.9564L2.32685 5.81118ZM2.73065 4.76791C2.86742 4.52001 3.06087 4.29248 3.33965 4.0834L0.939648 0.883398C0.234051 1.4126 -0.345935 2.06397 -0.771663 2.8356L2.73065 4.76791ZM3.34842 4.07678C3.60986 3.87845 4.00399 3.67645 4.59069 3.51644L3.53822 -0.342613C2.57804 -0.0807457 1.68897 0.314914 0.930876 0.890016L3.34842 4.07678ZM4.57978 3.51938C5.1511 3.36703 5.93325 3.27051 6.96484 3.27051V-0.729492C5.71129 -0.729492 4.55984 -0.615078 3.54913 -0.345556L4.57978 3.51938ZM6.96484 3.27051H11.79V-0.729492H6.96484V3.27051ZM9.79004 1.27051V3.27441H13.79V1.27051H9.79004ZM2.84839 23.9652C3.37414 23.7399 3.93889 23.4805 4.54149 23.1883L2.7964 19.589C2.23884 19.8594 1.73133 20.0921 1.27271 20.2887L2.84839 23.9652ZM4.58486 23.1666C5.32832 22.7836 6.0325 22.2912 6.69982 21.7073L4.0658 18.697C3.60813 19.0975 3.16973 19.3961 2.75303 19.6107L4.58486 23.1666ZM6.67677 21.7272C7.41241 21.103 8.0783 20.3429 8.6842 19.4744L5.40369 17.1857C4.95491 17.829 4.51337 18.3169 4.08886 18.6771L6.67677 21.7272ZM8.67891 19.482C9.35375 18.5241 9.90413 17.3924 10.3532 16.1232L6.58233 14.7889C6.22282 15.8049 5.82398 16.5891 5.40898 17.1782L8.67891 19.482ZM10.3564 16.1142C10.8119 14.8071 11.1617 13.2924 11.4206 11.5909L7.46612 10.9892C7.23286 12.522 6.93225 13.7847 6.57917 14.7979L10.3564 16.1142ZM11.4211 11.5878C11.686 9.8278 11.8125 7.79895 11.8125 5.51562H7.8125C7.8125 7.66198 7.69289 9.48275 7.46564 10.9923L11.4211 11.5878ZM11.8125 5.51562V3.03711H7.8125V5.51562H11.8125ZM9.8125 1.03711H7.49219V5.03711H9.8125V1.03711ZM7.49219 1.03711C6.45479 1.03711 5.48836 1.12448 4.61669 1.32563L5.51613 5.2232C6.01555 5.10795 6.66631 5.03711 7.49219 5.03711V1.03711ZM4.61669 1.32563C3.67509 1.54292 2.80003 1.9394 2.06065 2.56502L4.64442 5.61857C4.81912 5.47075 5.08663 5.32231 5.51613 5.2232L4.61669 1.32563ZM2.06615 2.56039C1.28888 3.2133 0.778709 4.06613 0.474508 5.00408L4.2794 6.2381C4.39707 5.87528 4.53729 5.70858 4.63892 5.62321L2.06615 2.56039ZM0.474508 5.00408C0.177349 5.92032 0.0605469 6.96318 0.0605469 8.07324H4.06055C4.06055 7.21455 4.15468 6.62265 4.2794 6.2381L0.474508 5.00408ZM0.0605469 8.07324V22.127H4.06055V8.07324H0.0605469ZM22.0047 25.502L23.4189 24.0877L22.0047 22.6735L20.5905 24.0877L22.0047 25.502ZM19.948 28.9297L18.0685 28.2462L18.0616 28.2652L18.055 28.2843L19.948 28.9297ZM19.0779 38V40H21.0779V38H19.0779ZM17.1004 38H15.1004V40H17.1004V38ZM17.3641 31.3027L15.3969 30.9421L15.3939 30.958L15.3913 30.9739L17.3641 31.3027ZM18.1023 28.5078L16.2346 27.7925L16.2304 27.8035L16.2264 27.8145L18.1023 28.5078ZM20.4227 24.6055L21.9634 25.8806L23.0187 24.6055L21.9634 23.3303L20.4227 24.6055ZM18.1023 20.7295L16.2216 21.4098L16.2304 21.4341L16.2399 21.4583L18.1023 20.7295ZM17.3641 17.9082L15.3913 18.237L15.3939 18.253L15.3969 18.2689L17.3641 17.9082ZM17.1004 11.1846V9.18457H15.1004V11.1846H17.1004ZM19.0779 11.1846H21.0779V9.18457H19.0779V11.1846ZM19.3152 17.6445L17.3389 17.9512L17.3397 17.9565L19.3152 17.6445ZM19.948 20.3076L18.055 20.953L18.0616 20.9721L18.0685 20.9911L19.948 20.3076ZM20.8973 22.3115L22.5933 21.2515L20.8973 22.3115ZM22.0047 23.7354L20.5905 25.1496L22.0047 26.5638L23.4189 25.1496L22.0047 23.7354ZM23.1121 22.3115L21.4161 21.2515L23.1121 22.3115ZM24.035 20.3076L22.1554 19.6241L22.1485 19.6431L22.1419 19.6623L24.035 20.3076ZM24.6941 17.6445L26.6697 17.9565L26.6705 17.9512L24.6941 17.6445ZM24.9314 11.1846V9.18457H22.9314V11.1846H24.9314ZM26.909 11.1846H28.909V9.18457H26.909V11.1846ZM26.6189 17.9082L24.6517 17.5475L24.6488 17.5635L24.6462 17.5794L26.6189 17.9082ZM25.8807 20.7295L24.013 20.0142L24.0087 20.0252L24.0047 20.0362L25.8807 20.7295ZM23.5867 24.6055L22.0459 23.3303L20.9906 24.6055L22.0459 25.8806L23.5867 24.6055ZM25.8807 28.5078L23.9999 29.1881L24.0087 29.2125L24.0182 29.2366L25.8807 28.5078ZM26.6189 31.3027L24.6462 31.6315L24.6488 31.6475L24.6517 31.6634L26.6189 31.3027ZM26.909 38V40H28.909V38H26.909ZM24.9314 38H22.9314V40H24.9314V38ZM24.035 28.9297L22.1419 29.575L22.1485 29.5942L22.1554 29.6132L24.035 28.9297ZM20.5905 24.0877C20.0769 24.6013 19.6167 25.2011 19.2013 25.8658L22.5933 27.9858C22.8809 27.5255 23.159 27.1761 23.4189 26.9162L20.5905 24.0877ZM19.2013 25.8658C18.7603 26.5714 18.3866 27.3712 18.0685 28.2462L21.8276 29.6132C22.072 28.9413 22.3311 28.4052 22.5933 27.9858L19.2013 25.8658ZM18.055 28.2843C17.7468 29.1886 17.5117 30.1915 17.3397 31.2808L21.2908 31.9047C21.4352 30.9902 21.622 30.2177 21.8411 29.575L18.055 28.2843ZM17.3397 31.2808C17.1618 32.4076 17.0779 33.6485 17.0779 34.9941H21.0779C21.0779 33.8086 21.1523 32.7819 21.2908 31.9047L17.3397 31.2808ZM17.0779 34.9941V38H21.0779V34.9941H17.0779ZM19.0779 36H17.1004V40H19.0779V36ZM19.1004 38V34.9414H15.1004V38H19.1004ZM19.1004 34.9414C19.1004 33.6514 19.1834 32.5522 19.3369 31.6315L15.3913 30.9739C15.1932 32.1626 15.1004 33.4892 15.1004 34.9414H19.1004ZM19.3313 31.6634C19.5086 30.6959 19.7277 29.8793 19.9783 29.2011L16.2264 27.8145C15.8793 28.7535 15.6062 29.8002 15.3969 30.9421L19.3313 31.6634ZM19.9701 29.2231C20.2464 28.5016 20.5489 27.8969 20.8688 27.3961L17.498 25.2426C17.0093 26.0074 16.5911 26.8617 16.2346 27.7925L19.9701 29.2231ZM20.8688 27.3961C21.2348 26.8233 21.6002 26.3195 21.9634 25.8806L18.8819 23.3303C18.4014 23.9109 17.9406 24.5497 17.498 25.2426L20.8688 27.3961ZM21.9634 23.3303C21.6002 22.8914 21.2348 22.3876 20.8688 21.8148L17.498 23.9684C17.9406 24.6612 18.4014 25.3 18.8819 25.8806L21.9634 23.3303ZM20.8688 21.8148C20.5446 21.3074 20.2409 20.7062 19.9648 20.0007L16.2399 21.4583C16.5966 22.37 17.0136 23.2102 17.498 23.9684L20.8688 21.8148ZM19.9831 20.0492C19.729 19.3467 19.5089 18.5163 19.3313 17.5475L15.3969 18.2689C15.606 19.4095 15.878 20.4599 16.2216 21.4098L19.9831 20.0492ZM19.3369 17.5794C19.1834 16.6587 19.1004 15.5595 19.1004 14.2695H15.1004C15.1004 15.7217 15.1932 17.0483 15.3913 18.237L19.3369 17.5794ZM19.1004 14.2695V11.1846H15.1004V14.2695H19.1004ZM17.1004 13.1846H19.0779V9.18457H17.1004V13.1846ZM17.0779 11.1846V14.2168H21.0779V11.1846H17.0779ZM17.0779 14.2168C17.0779 15.563 17.1619 16.8105 17.3389 17.9512L21.2916 17.3379C21.1522 16.4395 21.0779 15.4018 21.0779 14.2168H17.0779ZM17.3397 17.9565C17.5117 19.0459 17.7468 20.0487 18.055 20.953L21.8411 19.6623C21.622 19.0196 21.4352 18.2471 21.2908 17.3326L17.3397 17.9565ZM18.0685 20.9911C18.3866 21.8661 18.7603 22.666 19.2013 23.3715L22.5933 21.2515C22.3311 20.8321 22.072 20.296 21.8276 19.6241L18.0685 20.9911ZM19.2013 23.3715C19.6167 24.0362 20.0769 24.636 20.5905 25.1496L23.4189 22.3211C23.159 22.0612 22.8809 21.7118 22.5933 21.2515L19.2013 23.3715ZM23.4189 25.1496C23.9324 24.636 24.3927 24.0362 24.8081 23.3715L21.4161 21.2515C21.1284 21.7118 20.8504 22.0612 20.5905 22.3211L23.4189 25.1496ZM24.8081 23.3715C25.2572 22.6529 25.6257 21.8396 25.928 20.953L22.1419 19.6623C21.9169 20.3225 21.6701 20.8451 21.4161 21.2515L24.8081 23.3715ZM25.9145 20.9911C26.2483 20.0732 26.4959 19.0571 26.6697 17.9565L22.7186 17.3326C22.576 18.2359 22.3841 18.9951 22.1554 19.6241L25.9145 20.9911ZM26.6705 17.9512C26.8475 16.8105 26.9314 15.563 26.9314 14.2168H22.9314C22.9314 15.4018 22.8572 16.4395 22.7178 17.3379L26.6705 17.9512ZM26.9314 14.2168V11.1846H22.9314V14.2168H26.9314ZM24.9314 13.1846H26.909V9.18457H24.9314V13.1846ZM24.909 11.1846V14.2695H28.909V11.1846H24.909ZM24.909 14.2695C24.909 15.5513 24.8182 16.6393 24.6517 17.5475L28.5862 18.2689C28.8064 17.0677 28.909 15.73 28.909 14.2695H24.909ZM24.6462 17.5794C24.488 18.5284 24.2728 19.3357 24.013 20.0142L27.7484 21.4448C28.1213 20.471 28.3983 19.3974 28.5917 18.237L24.6462 17.5794ZM24.0047 20.0362C23.7483 20.7298 23.4575 21.3188 23.1406 21.8148L26.5114 23.9684C27.0031 23.1987 27.4153 22.3464 27.7567 21.4228L24.0047 20.0362ZM23.1406 21.8148C22.7746 22.3876 22.4092 22.8914 22.0459 23.3303L25.1275 25.8806C25.608 25.3 26.0687 24.6612 26.5114 23.9684L23.1406 21.8148ZM22.0459 25.8806C22.4092 26.3195 22.7746 26.8233 23.1406 27.3961L26.5114 25.2426C26.0687 24.5497 25.608 23.9109 25.1275 23.3303L22.0459 25.8806ZM23.1406 27.3961C23.4532 27.8855 23.7431 28.4781 23.9999 29.1881L27.7614 27.8275C27.4206 26.8852 27.0073 26.0188 26.5114 25.2426L23.1406 27.3961ZM24.0182 29.2366C24.274 29.8905 24.4882 30.6836 24.6462 31.6315L28.5917 30.9739C28.3982 29.8125 28.1201 28.7424 27.7432 27.779L24.0182 29.2366ZM24.6517 31.6634C24.8182 32.5716 24.909 33.6597 24.909 34.9414H28.909C28.909 33.4809 28.8064 32.1432 28.5862 30.9421L24.6517 31.6634ZM24.909 34.9414V38H28.909V34.9414H24.909ZM26.909 36H24.9314V40H26.909V36ZM26.9314 38V34.9941H22.9314V38H26.9314ZM26.9314 34.9941C26.9314 33.6485 26.8476 32.4076 26.6697 31.2808L22.7186 31.9047C22.8571 32.7819 22.9314 33.8086 22.9314 34.9941H26.9314ZM26.6697 31.2808C26.4959 30.1802 26.2483 29.1641 25.9145 28.2462L22.1554 29.6132C22.3841 30.2422 22.576 31.0014 22.7186 31.9047L26.6697 31.2808ZM25.928 28.2843C25.6257 27.3977 25.2572 26.5844 24.8081 25.8658L21.4161 27.9858C21.6701 28.3922 21.9169 28.9148 22.1419 29.575L25.928 28.2843ZM24.8081 25.8658C24.3927 25.2011 23.9324 24.6013 23.4189 24.0877L20.5905 26.9162C20.8504 27.1761 21.1284 27.5255 21.4161 27.9858L24.8081 25.8658ZM44.8756 38V40H46.8756V38H44.8756ZM42.898 38H40.898V40H42.898V38ZM42.898 18.9893H44.898V16.9893H42.898V18.9893ZM35.1725 18.9893V16.9893H33.1725V18.9893H35.1725ZM35.1725 38V40H37.1725V38H35.1725ZM33.1949 38H31.1949V40H33.1949V38ZM33.1949 1.27051V-0.729492H31.1949V1.27051H33.1949ZM35.1725 1.27051H37.1725V-0.729492H35.1725V1.27051ZM35.1725 17.2227H33.1725V19.2227H35.1725V17.2227ZM42.898 17.2227V19.2227H44.898V17.2227H42.898ZM42.898 1.27051V-0.729492H40.898V1.27051H42.898ZM44.8756 1.27051H46.8756V-0.729492H44.8756V1.27051ZM44.8756 36H42.898V40H44.8756V36ZM44.898 38V18.9893H40.898V38H44.898ZM42.898 16.9893H35.1725V20.9893H42.898V16.9893ZM33.1725 18.9893V38H37.1725V18.9893H33.1725ZM35.1725 36H33.1949V40H35.1725V36ZM35.1949 38V1.27051H31.1949V38H35.1949ZM33.1949 3.27051H35.1725V-0.729492H33.1949V3.27051ZM33.1725 1.27051V17.2227H37.1725V1.27051H33.1725ZM35.1725 19.2227H42.898V15.2227H35.1725V19.2227ZM44.898 17.2227V1.27051H40.898V17.2227H44.898ZM42.898 3.27051H44.8756V-0.729492H42.898V3.27051ZM42.8756 1.27051V38H46.8756V1.27051H42.8756ZM59.6781 2.50977V4.50977H61.6781V2.50977H59.6781ZM54.4311 5.12012L52.5776 4.36871L52.5688 4.39042L52.5605 4.41233L54.4311 5.12012ZM54.0619 36.2334H52.0619V38.2334H54.0619V36.2334ZM62.473 36.2334H64.473V34.2334H62.473V36.2334ZM62.473 38V40H64.473V38H62.473ZM52.0844 38H50.0844V40H52.0844V38ZM52.1107 6.64941L50.114 6.53531L50.1124 6.56295L50.1116 6.59062L52.1107 6.64941ZM52.3744 4.88281L54.3147 5.36788L54.3164 5.36095L54.3181 5.35401L52.3744 4.88281ZM53.0336 3.27441L54.7432 4.31237L54.7512 4.29917L54.759 4.28585L53.0336 3.27441ZM56.4613 1.08594L56.9371 3.02853L56.9509 3.02516L56.9646 3.02158L56.4613 1.08594ZM59.6781 0.743164H61.6781V-1.25684H59.6781V0.743164ZM59.6781 0.509766C58.6836 0.509766 57.7459 0.598857 56.8817 0.798288L57.7812 4.69585C58.2881 4.57888 58.9148 4.50977 59.6781 4.50977V0.509766ZM56.8817 0.798288C55.9454 1.01435 55.0797 1.40213 54.3292 1.99182L56.8005 5.13709C57.0343 4.95334 57.3463 4.79619 57.7812 4.69585L56.8817 0.798288ZM54.3292 1.99182C53.531 2.61894 52.956 3.43538 52.5776 4.36871L56.2845 5.87153C56.4335 5.50407 56.6143 5.2834 56.8005 5.13709L54.3292 1.99182ZM52.5605 4.41233C52.2025 5.35838 52.0619 6.4248 52.0619 7.5459H56.0619C56.0619 6.7334 56.1674 6.18263 56.3016 5.8279L52.5605 4.41233ZM52.0619 7.5459V36.2334H56.0619V7.5459H52.0619ZM54.0619 38.2334H62.473V34.2334H54.0619V38.2334ZM60.473 36.2334V38H64.473V36.2334H60.473ZM62.473 36H52.0844V40H62.473V36ZM54.0844 38V8.41602H50.0844V38H54.0844ZM54.0844 8.41602C54.0844 7.85613 54.0929 7.28687 54.1099 6.70821L50.1116 6.59062C50.0935 7.20727 50.0844 7.81575 50.0844 8.41602H54.0844ZM54.1075 6.76351C54.1359 6.26564 54.2063 5.80143 54.3147 5.36788L50.4341 4.39774C50.2613 5.0892 50.1559 5.80272 50.114 6.53531L54.1075 6.76351ZM54.3181 5.35401C54.4121 4.96639 54.5549 4.62242 54.7432 4.31237L51.324 2.23646C50.9146 2.91078 50.618 3.63908 50.4307 4.41161L54.3181 5.35401ZM54.759 4.28585C54.8818 4.0764 55.082 3.85189 55.4229 3.62815L53.2283 0.283958C52.4442 0.798503 51.7831 1.4529 51.3082 2.26297L54.759 4.28585ZM55.4229 3.62815C55.7454 3.4165 56.2306 3.20155 56.9371 3.02853L55.9856 -0.856657C54.9694 -0.6078 54.0308 -0.242673 53.2283 0.283958L55.4229 3.62815ZM56.9646 3.02158C57.6289 2.84885 58.5211 2.74316 59.6781 2.74316V-1.25684C58.3039 -1.25684 57.0515 -1.13401 55.9581 -0.849708L56.9646 3.02158ZM57.6781 0.743164V2.50977H61.6781V0.743164H57.6781Z" fill="#D32986"/>
</svg>
