<svg width="789" height="922" viewBox="0 0 789 922" fill="none" xmlns="http://www.w3.org/2000/svg">
<path fill-rule="evenodd" clip-rule="evenodd" d="M40 0C17.9086 0 0 17.9086 0 40V882C0 904.091 17.9086 922 40 922H666H668H725C747.402 922 758.603 922 767.16 917.64C774.686 913.805 780.805 907.686 784.64 900.16C789 891.603 789 880.402 789 858V706.211C789 695.481 789 690.115 787.691 685.125C786.531 680.703 784.622 676.513 782.045 672.736C779.138 668.474 775.09 664.953 766.992 657.913L730.008 625.757C721.91 618.716 717.862 615.196 714.955 610.934C712.379 607.157 710.469 602.967 709.309 598.545C708 593.554 708 588.189 708 577.459V525V40C708 17.9086 690.091 0 668 0H40Z" fill="#EDEEEF"/>
</svg>
