<svg width="542" height="540" viewBox="0 0 542 540" fill="none" xmlns="http://www.w3.org/2000/svg">
<g style="mix-blend-mode:multiply">
<path d="M541.016 492.433V340.774C541.016 296.008 531.879 288.242 498.072 281.39C439.139 273.168 394.824 244.389 376.093 232.512C285.637 172.671 263.252 70.8043 259.597 38.8282C255.942 6.85203 236.755 0 210.714 0H44.8783C3.30509 0 -0.806551 27.4081 0.107147 42.4826C1.02084 57.5571 6.04618 90.9036 11.0715 112.373C39.853 261.291 131.223 356.762 183.76 407.924C316.975 523.909 458.279 536.092 496.686 539.403L497.615 539.483C534.62 542.681 541.016 518.927 541.016 492.433Z" fill="#FFF2F9"/>
</g>
</svg>
